<?xml version="1.0" encoding="UTF-8" standalone="no"?>
<!-- Created with Inkscape (http://www.inkscape.org/) -->

<svg
   xmlns:dc="http://purl.org/dc/elements/1.1/"
   xmlns:cc="http://creativecommons.org/ns#"
   xmlns:rdf="http://www.w3.org/1999/02/22-rdf-syntax-ns#"
   xmlns:svg="http://www.w3.org/2000/svg"
   xmlns="http://www.w3.org/2000/svg"
   xmlns:sodipodi="http://sodipodi.sourceforge.net/DTD/sodipodi-0.dtd"
   xmlns:inkscape="http://www.inkscape.org/namespaces/inkscape"
   width="744.09448819"
   height="1052.3622047"
   id="svg2"
   version="1.1"
   inkscape:version="0.48.4 r9939"
   sodipodi:docname="incorrect.svg">
  <defs
     id="defs4" />
  <sodipodi:namedview
     id="base"
     pagecolor="#ffffff"
     bordercolor="#666666"
     borderopacity="1.0"
     inkscape:pageopacity="0.0"
     inkscape:pageshadow="2"
     inkscape:zoom="0.7"
     inkscape:cx="462.98586"
     inkscape:cy="773.7783"
     inkscape:document-units="px"
     inkscape:current-layer="layer1"
     showgrid="false"
     inkscape:window-width="1172"
     inkscape:window-height="867"
     inkscape:window-x="100"
     inkscape:window-y="100"
     inkscape:window-maximized="0" />
  <metadata
     id="metadata7">
    <rdf:RDF>
      <cc:Work
         rdf:about="">
        <dc:format>image/svg+xml</dc:format>
        <dc:type
           rdf:resource="http://purl.org/dc/dcmitype/StillImage" />
        <dc:title></dc:title>
      </cc:Work>
    </rdf:RDF>
  </metadata>
  <g
     inkscape:label="Layer 1"
     inkscape:groupmode="layer"
     id="layer1">
    <path
       style="fill:#000000"
       id="path3150"
       d="m 343.36615,506.1432 c 0.54312,8.06855 1.35237,16.09503 2.08073,24.14463 0.59401,10.80484 1.66846,21.55746 2.28016,32.36191 0.34672,9.86181 -0.0565,19.72755 -0.519,29.57225 -0.4192,7.08529 -0.40146,14.18656 -0.30032,21.28382 0.0168,5.29218 -0.22718,10.58277 -0.19849,15.87385 -0.72069,5.65561 -1.4944,11.22218 -1.77497,16.9433 -0.42372,5.07433 -1.42152,10.05075 -1.79775,15.12913 0.0668,4.15388 0.47687,8.29861 0.62521,12.4555 0.11037,4.42489 -0.13077,8.84439 -0.27893,13.26298 -0.1019,3.43997 -0.0328,6.88261 0.009,10.32313 0.41229,2.79181 -0.51285,7.57679 0.14468,10.11065 1.30893,3.16219 1.692,6.63786 1.84731,10.13156 0.008,4.14726 -0.36934,8.2739 -0.52587,12.41358 0.0184,1.76879 -0.14082,3.56272 -0.0249,5.33037 0.0177,0.27044 0.25338,0.44868 0.34211,0.69715 0.21749,0.60906 0.4034,1.2344 0.60509,1.85159 1.41084,4.82645 1.36757,9.91998 1.06151,14.95664 -0.34501,3.57134 -0.53551,7.14926 -0.5213,10.74459 0.0409,2.43205 0.11048,4.86313 0.16129,7.29489 0.0155,1.01292 -11.64954,1.28251 -11.66507,0.26959 l 0,0 c -0.0389,-2.50719 -0.0932,-5.01398 -0.12105,-7.52141 -0.008,-3.87903 0.11444,-7.7517 0.40025,-11.61614 0.16647,-3.36572 0.30466,-6.78203 -0.42384,-10.07344 -1.03223,-4.20957 -1.96661,-7.91542 -1.51553,-12.40911 0.10445,-3.86846 0.37719,-7.71946 0.59883,-11.5792 0.0347,-2.92594 -0.72094,-5.40375 -1.59427,-8.12257 -0.62031,-4.10402 -0.41449,-8.24268 -0.42643,-12.40916 0.009,-3.54266 0.037,-7.08515 0.0497,-10.62778 -0.006,-4.2272 -0.0802,-8.45309 -0.14382,-12.67945 -0.0406,-4.43036 -0.12393,-8.85557 -0.26618,-13.2832 0.0132,-5.19396 0.58958,-10.30539 1.15962,-15.44349 0.28865,-5.49535 1.07641,-10.86167 2.21963,-16.1848 0.0537,-5.22738 -0.27315,-10.4487 -0.40591,-15.6716 -0.051,-7.30974 -0.13703,-14.62 -0.0626,-21.93001 0.11284,-9.40115 0.44474,-18.81459 -0.0647,-28.2079 -0.50419,-10.64065 -1.61869,-21.2106 -2.18535,-31.84664 -0.64477,-8.49414 -1.31343,-17.06715 -0.14668,-25.54521 0,-0.98797 11.3777,-0.98797 11.3777,0 z"
       inkscape:connector-curvature="0" />
    <path
       style="fill:#000000"
       id="path3152"
       d="m 337.8433,571.00172 c -1.07865,6.41337 -3.5695,12.16605 -5.92085,17.96913 -1.32675,3.87727 -3.35771,7.38814 -4.581,11.31649 -0.7337,3.40222 -2.23645,6.38627 -3.44759,9.54116 -1.22138,2.73237 -2.34967,5.3654 -3.25729,8.26155 -0.8213,2.84061 -1.16595,5.87799 -1.66179,8.83841 -0.11997,3.29036 -1.8236,6.07285 -2.097,9.30263 -1.03995,3.31446 -1.23127,6.66495 -1.26961,10.17795 -0.54527,5.422 -1.20999,10.8033 -1.31491,16.27221 -0.0373,6.13302 -0.93065,12.18607 -1.41304,18.28263 -0.16328,5.83398 -1.20938,11.54975 -1.69945,17.34839 -0.13844,5.70771 -0.97437,11.37682 -1.858,16.97505 -0.97988,4.90262 -2.18436,9.73968 -3.43937,14.54677 -1.26659,4.61581 -1.58172,9.51097 -2.55917,14.23125 -1.25031,4.50665 -2.05524,9.16135 -2.94931,13.79127 -0.52718,4.12605 -1.35219,8.18351 -1.70312,12.34103 -0.47424,3.63059 -1.47753,7.09055 -1.60725,10.7797 0.13287,3.93515 0.47954,7.78553 0.19344,11.71716 -0.49368,3.19858 -1.38683,6.25866 -1.72606,9.4921 -0.0866,1.00801 -11.69504,-0.4957 -11.60845,-1.50371 l 0,0 c 0.32684,-3.23986 0.86539,-6.41247 1.70993,-9.51424 0.75554,-3.42049 -0.67005,-7.29469 -0.17497,-10.79973 0.17201,-3.80198 0.72439,-7.49973 1.47244,-11.1924 0.26977,-4.69134 1.16497,-9.19579 1.78578,-13.81265 0.74025,-4.92721 1.70697,-9.82023 2.84648,-14.62891 1.22615,-4.85439 1.46595,-9.95826 2.8342,-14.76523 1.21309,-4.35869 2.2614,-8.79293 3.06645,-13.29081 0.99533,-5.02012 1.34483,-10.3002 1.67172,-15.44016 0.34124,-5.82136 1.36465,-11.53255 1.53923,-17.36851 0.37554,-5.92064 1.46843,-11.76203 1.39493,-17.71421 0.25104,-5.42778 0.78013,-10.78869 1.67867,-16.1153 0.13501,-3.9044 0.44828,-7.79245 1.68582,-11.4393 0.44002,-3.54038 1.53621,-6.78363 2.02303,-10.29687 0.67403,-3.519 1.42312,-7.01183 2.24754,-10.47405 0.57276,-1.854 0.92423,-3.70414 1.67804,-5.4786 0.21013,-0.49463 0.46986,-0.95503 0.7048,-1.43254 0.15508,-0.24627 0.34314,-0.46597 0.46523,-0.7388 0.2779,-0.621 0.48558,-1.28563 0.72837,-1.92845 1.18058,-2.43627 2.19327,-4.92845 2.89647,-7.61935 1.10595,-4.60536 2.89798,-8.89871 4.30442,-13.37348 2.3358,-5.82491 4.34762,-11.83917 6.76618,-17.59762 0.30749,-0.92001 10.90255,4.42003 10.59506,5.34004 z"
       inkscape:connector-curvature="0" />
    <path
       style="fill:#000000"
       id="path3154"
       d="m 341.24791,566.73355 c 5.39535,1.77411 10.74878,5.11095 14.90924,9.75251 1.10448,1.23222 2.06207,2.64944 3.09311,3.97415 6.09424,8.62445 10.32597,18.78475 13.72046,29.33457 2.88339,10.27523 6.50411,20.21423 9.96571,30.21059 2.7312,7.40352 5.77221,14.57514 7.49381,22.4557 1.37231,5.66 1.73181,11.626 3.64061,17.07489 1.79338,4.89977 2.92993,10.03916 4.11541,15.18236 0.9824,4.21292 1.45776,8.62289 2.58235,12.78108 0.88362,3.79533 1.76199,7.59506 2.52523,11.43237 1.19632,4.42975 2.27755,8.93267 3.19704,13.46662 1.04627,3.26147 1.63298,6.71652 3.04018,9.78758 0.71783,2.20627 1.6105,4.31752 2.3584,6.50459 0.7767,2.27132 0.20343,1.35032 0.82061,2.26099 0.16665,0.36862 0.27106,0.79159 0.49994,1.10587 0.0612,0.084 -0.0109,-0.38855 0.0665,-0.32808 0.94182,0.73552 2.27118,3.69276 2.93819,4.98706 1.07033,2.59633 1.76633,4.4721 2.19537,7.37519 0.10247,0.97323 -11.10548,2.75296 -11.20796,1.77973 l 0,0 c 0.4357,1.84702 -0.99296,-2.43017 -1.10798,-2.71859 -1.14658,-2.15284 -2.54192,-4.02661 -3.66274,-6.19775 -1.36011,-3.09308 -2.66066,-6.22083 -3.77274,-9.46117 -1.38919,-3.87379 -2.49875,-7.87736 -3.68487,-11.84922 -1.14391,-4.56459 -2.29739,-9.11464 -3.08246,-13.80054 -0.7512,-3.60799 -1.57266,-7.20351 -2.56225,-10.72337 -1.02407,-4.24376 -1.67107,-8.59939 -2.61686,-12.85374 -1.24908,-4.8203 -2.57464,-9.59822 -4.31068,-14.19771 -1.66688,-5.85444 -2.57941,-11.90376 -3.89828,-17.87485 -2.09739,-7.19061 -5.17355,-13.75415 -7.98065,-20.55204 -3.84003,-10.00699 -7.38289,-20.2157 -10.35546,-30.66056 -2.91128,-8.87935 -6.15226,-17.6234 -11.28934,-24.95414 -3.63459,-4.57314 -7.96708,-7.98657 -12.66016,-10.73503 -0.72316,-0.43679 4.30709,-12.99586 5.03026,-12.55906 z"
       inkscape:connector-curvature="0" />
    <path
       style="fill:#000000"
       id="path3156"
       d="m 287.86907,808.88318 c -3.001,3.22478 -6.58317,5.54509 -10.13408,7.72516 -2.98222,2.27724 0.50322,-0.6219 -1.46732,1.20612 -0.20885,0.19375 0.12732,-0.77557 0.3835,-0.84148 0.1115,-0.0287 0.0875,0.25833 0.1312,0.3875 0.62491,4.00118 0.87579,8.06161 0.97366,12.1274 0.66161,3.3259 -0.67352,0.33165 1.54057,-0.50847 0.88195,0.23619 2.27017,0.62552 3.18794,0.80869 0.43012,0.0859 1.73231,0.18572 1.29678,0.20336 -2.11105,0.0855 -2.94212,-0.88784 -2.845,0.0712 1.80733,-1.55145 4.12327,-5.84234 6.43486,-5.76853 2.28521,0.073 4.46011,1.23431 6.69018,1.85147 3.49402,4.35716 4.91745,10.02955 6.37326,15.69736 0.0991,0.20825 0.28026,0.86505 0.29732,0.62476 0.0261,-0.36761 -0.12438,-0.73243 -0.26659,-1.05749 -1.99603,-4.56227 -7.54102,1.16411 -3.54899,-2.77631 7.44814,-6.92404 12.29077,-2.79376 18.03794,3.5348 -2.66593,-2.82886 3.2017,3.55542 2.51156,2.53061 -0.29305,-0.43517 -0.61537,-1.15551 -1.06985,-1.06952 -2.25366,0.42643 -4.41206,1.46656 -6.52897,2.50732 -1.56126,0.76757 -0.0795,1.53305 -1.23604,0.73486 -1.40925,-4.39861 -1.27904,-10.45243 2.94265,-12.88234 2.07651,-1.19519 5.32736,-0.90277 7.80767,-0.76113 -1.76213,-2.62081 -3.77581,2.38521 -4.25815,2.03765 -0.12029,-0.0867 -0.59195,-2.55344 -0.62352,-2.7072 -0.289,-1.38977 -1.26632,-5.68254 -2.30896,-6.46071 -0.43709,-0.83961 9.23206,-8.4305 9.66915,-7.5909 l 0,0 c 2.10375,3.55247 3.93788,7.39667 4.44861,11.82893 0.60469,5.21096 0.79758,10.3474 -2.63551,14.32631 -0.75279,0.87248 -1.67451,1.63133 -2.68227,1.92162 -1.67262,0.48183 -3.43126,0.22246 -5.1469,0.33369 -3.68325,-0.40099 0.31645,0.24352 1.79809,-1.21535 2.90686,-2.8622 0.39795,-9.53534 2.51801,-2.41957 0.31341,2.07756 1.51207,7.11955 -0.18143,9.01356 -6.21131,6.94677 -9.53004,4.72318 -14.34224,-0.52092 -3.62023,-4.15498 -3.88267,-2.28189 1.12076,-3.74523 0.0969,-0.0283 -0.16785,-0.13157 -0.25177,-0.19736 -0.38132,0.26456 -0.76263,0.52912 -1.14395,0.79368 -0.45259,0.41542 -3.37916,3.11817 -3.53837,3.17571 -6.56882,2.37418 -9.6406,1.34024 -12.70487,-5.76543 -0.74322,-2.18969 -1.39598,-4.37431 -2.02556,-6.61222 -0.3368,-1.19717 -1.11013,-2.24984 -1.17792,-3.51371 -0.0128,-0.23809 0.3396,0.23198 0.5094,0.34797 4.69801,0.64977 4.36093,2.34425 6.29778,-0.45699 0.2991,-0.43259 -0.70735,0.73558 -1.01797,1.15575 -2.01108,2.72032 -0.84005,1.46798 -2.84213,3.33033 -1.05075,0.89657 -2.70638,2.59161 -4.11532,2.81914 -3.42102,0.55246 -6.40131,-0.007 -9.69006,-0.69614 -5.52712,-1.94954 -8.25033,-5.40338 -9.09845,-12.48093 -0.15089,-4.18865 -0.51559,-8.36061 -0.58801,-12.55276 0.23081,-4.23265 1.31486,-7.98344 4.00776,-10.81581 3.44455,-3.82315 7.63377,-6.15849 11.64476,-8.95253 0.64918,-0.59452 7.49597,10.67959 6.84679,11.27411 z"
       inkscape:connector-curvature="0" />
    <path
       style="fill:#000000"
       id="path3158"
       d="m 313.41991,819.69232 c -2.41726,-4.69858 -3.30807,-10.38655 -5.84758,-14.99314 -0.64936,-0.86328 -1.03036,-1.9526 -1.59031,-2.89018 -0.0317,-0.0531 -0.18383,-0.10779 -0.1551,-0.0522 1.51911,2.93784 5.52251,1.63607 3.86105,1.96026 -3.54277,1.67341 -7.22812,2.44059 -11.00223,2.65463 -2.74572,0.19602 -5.4347,-0.22215 -8.1477,-0.56413 -0.78303,-0.32008 2.9031,-13.91885 3.68613,-13.59877 l 0,0 c 0.49443,0.0383 5.41432,0.28332 1.43151,0.1878 3.02648,0.1493 6.02151,-0.11666 8.9151,-1.31902 6.98621,-2.36372 9.64652,0.65693 13.61118,6.47746 3.21243,5.7905 5.34027,12.38021 6.39476,19.27746 0.16467,0.96879 -10.99213,3.82863 -11.15681,2.85985 z"
       inkscape:connector-curvature="0" />
    <path
       style="fill:#000000"
       id="path3160"
       d="m 412.42278,766.20421 c -0.0396,6.44865 -1.59799,12.5164 -3.62487,18.39372 -1.78661,5.26 -4.27504,10.2291 -4.69924,15.98679 -0.132,2.85007 0.27039,6.73061 2.99384,7.3763 1.09477,0.4175 1.29625,0.60187 2.43023,0.63068 0.38075,0.01 1.5187,-0.0514 1.13973,-0.0976 -2.78632,-0.33984 -2.26573,-0.52641 -3.75963,0.5639 -0.31628,-0.63382 1.1257,-3.95976 1.19414,-4.08767 2.92174,-5.46079 5.19861,-4.85815 10.3027,-5.35841 5.28948,1.21243 8.93503,5.84912 13.20104,9.36107 4.01773,4.39517 0.2716,-0.63614 -5.26033,1.97442 -1.93016,0.91086 -1.44158,6.46424 -2.46788,3.09206 -0.27987,-0.91959 -0.47569,-1.87453 -0.71353,-2.8118 -0.8637,-4.42817 -3.79241,-15.23086 0.88545,-18.22811 2.35202,-1.50701 5.24782,-0.961 7.87172,-1.44149 3.93042,0.54877 10.75559,10.04966 14.06412,10.24426 -7.6011,0.11488 -2.60668,-1.35842 -6.92553,2.70691 -0.74036,0.69689 -3.20893,-6.33133 -3.45442,-6.96448 -2.04305,-4.25428 -3.97988,-11.03865 0.70161,-14.71652 4.01203,-3.15194 6.71027,-1.20728 10.11381,0.35678 2.36106,1.21983 4.60716,2.7743 7.01918,3.84928 0.55289,0.24641 1.10571,0.53531 1.6892,0.62627 0.15222,0.0237 0.54158,-0.32175 0.38897,-0.30228 -1.5015,0.19151 -2.98583,0.54928 -4.47875,0.82393 -0.49714,0.69489 -0.91938,1.48292 -1.49142,2.0847 -0.43506,0.45768 -0.70612,-1.12385 -0.94308,-1.76434 -0.92766,-2.50731 -2.01094,-4.97693 -3.06154,-7.41189 -1.15328,-2.01894 -1.6565,-5.56421 -3.35971,-7.1633 -0.0655,-0.0615 -0.10335,0.24126 -0.18107,0.20725 -0.26491,-0.11594 -0.46235,-0.39335 -0.69352,-0.59002 -1.62451,-0.86607 -3.09058,-3.68595 -4.9829,-3.0197 -0.24532,0.0802 -0.97678,0.14169 -0.73599,0.24048 0.58848,0.24143 1.29236,-0.10896 1.85289,0.21773 0.40205,0.23434 -0.88966,0.0423 -1.33333,0.0851 -1.66482,0.1606 -3.32553,0.44515 -4.98556,0.66569 -1.73327,0.24115 -3.47557,0.30752 -5.21754,0.36127 -0.79787,0.25873 -3.7775,-13.59778 -2.97962,-13.85651 l 0,0 c 1.43559,0.0224 2.87253,0.039 4.30413,-0.12909 4.73649,-0.56514 9.57072,-1.87881 14.2727,-0.23827 2.7202,1.34618 5.10595,3.29678 7.49242,5.37527 3.62403,2.8495 6.10824,7.41301 8.04035,12.04066 1.89591,4.86662 5.10194,12.76418 3.73342,18.28989 -0.46518,1.87829 -1.48437,3.47771 -2.22655,5.21656 -2.15516,0.7756 -4.247,1.89803 -6.4655,2.3268 -3.40844,0.65875 -9.15959,-3.84024 -12.20815,-5.59083 -2.2373,-1.59808 1.09058,1.03951 3.4723,-1.99294 1.10713,-1.40961 1.03607,-3.70658 1.4693,-5.59137 0.0546,-0.23742 -0.16628,-0.90085 -0.014,-0.7399 1.14376,1.2092 1.14502,3.66943 2.31812,4.77608 1.64477,4.19983 4.53938,10.98315 3.19867,15.74631 -0.60135,2.13639 -1.23194,4.68946 -2.82152,5.82924 -2.01563,1.44528 -4.62487,0.77878 -6.9373,1.16816 -0.97226,-0.38386 -1.97871,-0.65571 -2.91676,-1.15158 -3.95152,-2.08887 -7.28805,-5.76365 -10.52586,-9.13867 7.16569,-2.87558 4.22503,0.24045 6.28105,-5.83188 0.058,-0.17136 0.0464,0.36731 0.0836,0.54719 0.17086,0.82729 0.37156,1.64505 0.54021,2.47302 0.86519,4.24734 0.63388,2.96836 1.12107,6.95916 0.32783,3.34015 1.63147,10.05863 -1.35677,12.31242 -4.30269,3.24519 -7.19223,1.21333 -10.31613,-1.15224 -2.65922,-2.19636 -5.08059,-5.14289 -8.17062,-6.38297 0.89383,-0.21055 1.86007,-0.15037 2.6815,-0.63165 0.17862,-0.10466 1.39328,-5.00049 0.10401,-0.21992 -0.30208,1.12011 -0.6567,2.21782 -0.98505,3.32672 -1.18963,2.11575 -2.39701,4.849 -4.60008,5.72119 -4.79711,1.89914 -9.40552,0.14547 -13.47104,-2.84363 -0.81833,-0.81858 -1.71303,-1.53393 -2.45499,-2.45575 -3.64212,-4.52503 -4.93452,-11.00716 -4.67076,-17.17668 0.76949,-6.90893 2.66147,-13.31542 5.30372,-19.49084 0.84762,-2.43062 1.88621,-4.7987 2.44833,-7.36156 0.52929,-2.41318 0.39527,-2.73971 1.00843,-4.98561 0.0987,-0.36137 0.26062,-0.69183 0.39093,-1.03773 0,-0.98797 11.37771,-0.98797 11.37771,0 z"
       inkscape:connector-curvature="0" />
    <path
       style="fill:#000000"
       id="path3162"
       d="m 346.58875,768.54328 c 1.85917,5.59703 1.96683,11.63383 2.3006,17.56411 0.53825,3.04908 0.95472,6.06021 1.01175,9.1881 -0.0635,3.94599 -0.23993,7.88681 -0.3089,11.83289 -0.0472,3.74756 0.018,7.49526 0.0554,11.24249 0.39766,5.25557 -2.07453,9.06577 -4.30728,13.13198 -3.51158,7.86244 -7.70647,14.99113 -12.58474,21.65857 -6.40497,8.03202 -14.01961,14.4725 -19.82426,23.21555 -3.18079,4.90505 -4.84201,10.73357 -6.31454,16.64923 -1.98803,7.75272 -5.63773,14.57281 -9.47161,21.11315 -2.65356,4.61609 -5.92716,8.50192 -9.19496,12.43136 0.0328,-0.0856 0.29597,-0.78301 0.30513,-0.73338 0.34702,1.87968 0.0162,5.04878 0.0179,7.03241 0.37093,3.89786 -1.36781,7.30898 -1.96746,10.99233 -1.01648,3.01582 -1.66431,6.15939 -2.68043,9.17019 -1.73473,4.14762 -4.81568,6.8036 -7.74067,9.58008 -3.05104,3.03668 -6.27481,5.83486 -9.61328,8.37647 -0.58164,0.73127 -9.0036,-9.37012 -8.42195,-10.10146 l 0,0 c 3.0351,-3.20606 6.57365,-5.59114 9.73363,-8.61008 1.12306,-0.94365 2.47751,-1.76193 3.54831,-2.78762 0.40185,-0.38493 0.7031,-0.91962 1.12338,-1.27363 0.35833,-0.30183 0.43002,-0.0452 0.57115,0.19176 0.81476,-2.31748 1.20266,-4.78718 2.13411,-7.05538 0.53204,-2.92895 1.68631,-5.66773 1.61239,-8.69831 0.12782,-4.33884 0.002,-8.88153 1.30235,-12.96202 2.34051,-4.82512 5.62195,-8.82395 8.23662,-13.4242 3.18989,-5.37939 6.69967,-10.54787 8.64506,-16.82531 1.70692,-7.29707 3.4738,-14.75346 6.95338,-21.11243 5.49809,-10.10605 12.57416,-17.70595 20.17163,-25.39046 5.06494,-5.65739 9.47908,-11.95281 13.27085,-18.96143 0.50758,-0.78127 0.95841,-1.62363 1.52273,-2.34382 1.0975,-1.40067 1.5024,0.21385 1.33819,-3.08978 -0.0531,-3.87954 -0.18466,-7.75728 -0.18334,-11.63777 0.0493,-3.94423 0.2213,-7.8812 0.61086,-11.79911 0.18138,-2.52872 -0.67301,-4.59643 -1.31924,-6.99814 -0.9918,-5.47364 -1.20033,-11.13754 -1.68953,-16.70649 -0.16467,-0.96879 10.99213,-3.82863 11.1568,-2.85985 z"
       inkscape:connector-curvature="0" />
    <path
       style="fill:#000000"
       id="path3164"
       d="m 355.25595,825.65689 c 5.4176,6.40388 8.63356,14.88394 12.38394,22.74217 3.34339,8.37983 7.11934,16.48325 10.63598,24.754 3.14698,5.42303 6.52616,10.5789 9.37033,16.25735 1.7231,3.90651 1.99946,8.3665 2.96599,12.57724 1.57765,4.05171 3.24436,8.11898 5.26131,11.88474 1.28693,2.54304 2.61512,5.0172 3.76574,7.66418 1.77791,3.3185 3.30749,6.87951 4.67233,10.48996 1.34554,2.84214 2.647,5.7534 3.63458,8.81042 0.65732,1.5833 1.60735,1.89341 2.80391,3.35045 0.40512,0.73228 0.81026,1.46456 1.21539,2.19683 0.38593,0.87271 -9.66443,7.5751 -10.05036,6.70239 l 0,0 c -0.0242,-0.0513 -0.0483,-0.10245 -0.0725,-0.15368 -1.95386,-2.20612 -3.58002,-4.72323 -4.65158,-7.72686 -0.98687,-2.83643 -3.0576,-5.10284 -4.01165,-7.97898 -1.24262,-3.32309 -2.43076,-6.68326 -3.76952,-9.94735 -1.20497,-2.29089 -2.78289,-4.17781 -4.01043,-6.4609 -2.74783,-4.98463 -5.21672,-10.24182 -6.32443,-16.17023 -0.36321,-2.77472 -0.5325,-5.79647 -1.97449,-8.08081 -3.53097,-5.64953 -7.36218,-11.03498 -10.45633,-17.07993 -3.70946,-8.08014 -7.74846,-15.93097 -11.19344,-24.19314 -3.10329,-6.99467 -5.86553,-14.21808 -9.21543,-21.0453 -0.49477,-0.78329 8.52584,-9.37584 9.02061,-8.59255 z"
       inkscape:connector-curvature="0" />
    <path
       style="fill:#000000"
       id="path3166"
       d="m 267.44534,965.7781 c -5.8223,0.87717 -11.71823,0.87433 -17.57777,0.92275 -5.88966,0.0396 -11.77477,-0.0501 -17.64617,-0.64197 -2.35339,-0.36725 -4.70859,-0.36652 -7.06732,-0.12769 -3.52652,0.30637 -7.06143,0.14003 -10.59197,0.13416 -0.38938,0.075 -0.78207,0.12756 -1.16817,0.22491 -0.85463,0.21549 -2.04526,0.65879 -2.87303,0.91892 -1.16113,0.36501 -2.22519,0.70021 -2.18253,0.51724 0.0814,-0.34918 0.43948,-0.48624 0.65922,-0.72936 -0.0606,0.0727 -0.12184,0.14452 -0.18168,0.21806 -0.0603,0.0742 0.23366,-0.11107 0.25605,-0.01 0.062,0.28006 0.0751,0.57311 0.1103,0.86009 0.13774,1.12121 0.27035,2.24341 0.40722,3.36482 0.86302,3.7735 0.19085,7.85482 0.74396,11.63754 0.50691,1.27826 0.23732,1.42198 1.02245,1.83211 0.0912,0.0475 0.0345,-0.3846 0.12382,-0.3319 0.37204,0.2197 0.63647,0.64585 0.9547,0.96872 2.4333,0.13297 4.66758,1.58416 6.88164,2.97989 2.27516,1.17589 4.2421,3.01188 6.3746,4.50978 0.76412,0.0521 1.33885,-0.64032 2.1108,-0.70641 3.48663,-0.29826 7.49559,0.27907 10.94848,0.64025 5.78009,0.71544 11.52216,1.87082 17.31807,2.40039 3.21404,0.29365 4.33969,-0.11542 2.71356,0.37754 2.4594,0.49297 4.80591,0.23653 7.23241,-0.22478 0.33864,0.34859 1.51747,-0.22188 1.92715,-0.18092 0.0942,0.009 -0.13689,0.16001 -0.20532,0.24009 -0.15157,0.17736 -0.46264,0.78891 -0.45466,0.53201 0.0122,-0.39476 0.31352,-0.68998 0.47028,-1.03494 0.63676,-2.82358 1.31435,-5.66192 2.03336,-8.47013 1.03892,-2.94302 1.23139,-5.97925 1.11939,-9.13512 -0.0365,-0.5795 -0.0701,-1.15926 -0.10956,-1.7385 -0.0861,-1.2623 -0.11581,-2.53304 -0.26835,-3.78583 -0.0184,-0.15078 -0.15499,-0.56928 -0.15325,-0.41685 0.0165,1.44321 0.52095,1.07036 -0.0763,1.37923 0.56636,0.29991 -0.63515,0.90131 -0.35068,1.02518 0.65495,0.28527 2.76546,0.26363 2.07098,0.29411 -3.45105,0.15137 -3.76389,0.007 -6.29587,-0.49495 -0.76854,-0.3406 3.15418,-13.6877 3.92272,-13.34703 l 0,0 c 1.70788,0.0925 1.43956,0.0561 -0.8078,0.0697 3.87559,0.2333 6.43404,-0.22755 9.57756,2.61548 3.77989,4.33724 3.96703,8.07769 4.20854,13.97079 0.11412,4.67474 -0.16828,9.33206 -1.75317,13.66046 -1.23513,3.24735 -1.34649,7.00686 -2.65425,10.23146 -1.50769,3.3146 -2.98269,5.9576 -6.01751,7.2043 -2.12811,0.8743 -1.37327,0.8562 -2.84014,0.6092 -2.49618,-0.427 -4.81689,1.9117 -7.34298,1.7603 -9.37064,0.3874 -18.71662,0.097 -27.94816,-2.1996 -5.27178,-1.1555 -10.97726,-1.475 -15.74826,-4.6721 -1.84384,-1.4184 -3.83781,-2.5516 -5.84844,-3.5808 -2.82781,-1.56489 -5.96855,-2.40222 -8.36376,-4.98446 -2.64025,-2.51865 -4.37283,-5.78757 -5.15102,-9.79284 -0.63171,-4.07743 -0.52519,-8.25867 -1.09075,-12.36334 -0.42088,-5.16045 -0.62028,-10.4635 2.29174,-14.68359 0.72054,-0.82975 1.3628,-1.7757 2.1616,-2.48925 2.08777,-1.86493 5.61904,-1.55487 7.88595,-3.12949 3.96407,-1.05848 8.01777,-0.73571 12.05749,-0.51392 2.3411,0.2274 4.67928,0.25571 7.01393,-0.12769 5.78102,-0.6086 11.57757,-0.67458 17.37773,-0.64193 5.98889,0.0493 12.00958,0.0639 17.96362,0.92274 0.77925,-0.2457 3.60877,13.2873 2.82953,13.53306 z"
       inkscape:connector-curvature="0" />
    <path
       style="fill:#000000"
       id="path3168"
       d="m 411.98721,951.08845 c -3.59001,5.11858 -8.31125,8.76443 -13.01333,12.15398 0.43153,-1.0383 -2.86255,2.81553 -2.46111,1.75922 0.38388,-1.01001 0.51786,-0.58155 0.80769,0.21773 1.23686,3.39199 1.38951,7.1364 2.30776,10.63215 0.82229,0.85771 1.15296,2.40092 2.15393,3.05238 0.13137,0.0856 0.16008,-0.40208 0.30866,-0.39535 0.4189,0.0191 0.79968,0.30921 1.19951,0.46381 8.32699,3.19683 16.69872,6.05853 25.28871,7.96675 5.56941,1.4814 11.20241,2.6003 16.84639,3.55629 1.07682,0.18238 2.18602,0.14089 3.23769,0.47859 0.33706,0.10824 -1.05794,-0.19537 -1.02813,0.23092 0.0306,0.43677 0.70558,0.13435 1.05837,0.20156 -0.2159,0.24906 -0.43181,0.49811 -0.64771,0.74724 -0.14555,0.24813 -0.25943,0.52957 -0.43665,0.74446 -0.042,0.0508 -0.0213,-0.15085 0.002,-0.21746 0.30546,-0.87361 0.54423,-1.79972 0.97857,-2.58672 1.74218,-3.15699 2.51023,-3.46422 4.9606,-5.69966 5.48202,-4.1449 11.62639,-6.54516 17.7421,-8.8296 2.13531,-0.65166 2.85965,-0.62402 4.42251,-2.24895 -0.42304,0.55827 -0.27881,-0.57363 -0.3697,-0.8306 -0.0292,-0.0826 -0.16818,0.064 -0.22008,0 -0.26802,-0.3288 -0.94492,-2.096 -0.99005,-2.20569 -1.38954,-2.07911 -2.34461,-3.66776 -4.13589,-5.25615 -5.75107,-3.27472 -11.74907,-5.98624 -17.75182,-8.49836 -4.49674,-1.96175 -9.15137,-3.01372 -13.83384,-3.986 -0.61882,-0.0778 -3.62822,-0.42579 -4.04218,-0.0381 -0.35492,0.33236 1.77193,-0.088 1.33855,0.0431 -1.0757,0.32539 -2.21493,0.0722 -3.32225,0.1143 -4.56522,0.87068 -8.51861,-2.22916 -12.93984,-2.45903 -2.72578,0.14851 0.0276,-0.0392 0.559,0.13871 0.42406,0.14201 -0.87907,0.0752 -1.31806,0.048 -0.77453,-0.0479 -0.95491,0.13026 -1.81992,0.62687 -3.03141,1.9701 -6.4267,2.6482 -9.82642,2.49229 -0.77902,0.34642 -4.76851,-13.18275 -3.98948,-13.52917 l 0,0 c 2.35717,-0.57957 4.62423,-0.34875 7.02089,-0.32848 1.68023,-1.04777 3.31373,-2.34701 5.16093,-2.92691 2.62403,-0.82378 5.53962,-0.13103 8.20878,0.0535 1.74066,0.35546 3.42313,0.8283 5.13673,1.3378 0.46182,0.13732 0.92216,0.28466 1.38887,0.39433 0.3808,0.0895 1.52645,0.082 1.15138,0.2026 -0.65441,0.21037 -1.35225,0.0529 -2.02837,0.0793 4.45515,-0.25381 8.92217,-0.42949 13.35699,0.27183 5.64883,0.51665 11.27227,1.0765 16.677,3.40648 6.98891,3.22176 14.06246,6.88524 19.64047,13.15214 2.33989,2.84679 4.43675,5.99006 6.20783,9.40264 2.13033,5.6707 2.8638,10.43665 0.12511,16.08235 -2.00757,2.9768 -4.44202,5.78823 -7.43093,7.18053 -5.36232,2.89672 -10.84506,5.41762 -16.37767,7.77388 -0.53839,0.17453 -1.07678,0.34905 -1.61517,0.52358 -0.21353,-0.0675 -0.42518,-0.26047 -0.64058,-0.20256 -0.81447,0.21885 -1.25584,2.66719 -1.33182,2.83828 -1.45849,3.28445 -1.5047,2.80315 -4.00021,5.26755 -4.05686,2.027 -1.88863,1.2585 -8.57808,1.8421 -7.72414,0.6739 -15.37701,-0.8414 -22.88442,-2.9896 -2.28616,-0.7837 -4.60075,-1.4516 -6.85847,-2.3511 -6.61087,-2.63365 -12.90086,-6.51274 -19.0731,-10.38458 -3.50698,-2.61212 -6.17522,-6.02733 -7.71567,-10.75391 -1.17701,-3.83365 -1.7137,-7.85356 -2.69981,-11.7657 -1.08184,-7.22261 0.28017,-11.81765 5.11382,-16.20463 3.98746,-3.11842 7.81455,-6.58748 11.95936,-9.38146 0.49477,-0.78329 9.51538,7.80925 9.02062,8.59255 z"
       inkscape:connector-curvature="0" />
    <path
       style="fill:#ac9393"
       id="path3170"
       d="m 117.76286,123.03426 c -10.76669,1.22023 -21.650074,0.91963 -32.440808,0.18777 -4.831385,-0.25943 -1.770314,-0.28079 -0.364359,-2.42711 2.304782,-3.51847 2.399666,-6.86638 1.528042,0.0923 -1.109218,5.6093 -4.8272,10.10661 -7.907191,14.74049 -1.992148,3.72086 -5.243851,6.64003 -6.208731,10.83357 -0.547895,4.43691 0.332603,8.88544 0.886891,13.27882 0.660318,4.945 0.48758,9.93338 0.278965,14.90098 0.02049,2.30012 -0.342427,4.62228 -0.225105,6.92294 0.03024,0.59462 0.95945,2.16833 1.123745,2.56368 0.600929,-0.74897 3.627257,4.74183 4.907053,5.42073 0.04246,-0.1928 -0.06331,-0.62082 0.127147,-0.57841 0.593548,0.13231 1.010779,0.69322 1.561044,0.95469 0.315879,0.15009 0.708871,0.0943 1.012569,0.26822 1.589295,0.91055 2.57565,2.23637 4.407538,2.48177 4.683318,2.27254 9.441465,3.73529 14.64117,4.01909 7.19596,-0.16425 13.30807,-0.71958 20.90406,-1.22751 7.24506,-0.55577 14.40245,-2.08994 21.00952,-5.19594 2.23686,-1.12968 4.27948,-2.21118 5.31841,-3.98992 0.8124,-5.81452 4.03686,-9.24749 12.07897,-9.24208 2.74152,0.001 6.64519,4.80642 8.49795,6.85123 6.7335,8.67547 11.57253,18.62702 17.2589,27.99613 1.68721,2.86112 3.18254,5.81114 4.71778,8.75061 0.30171,0.57768 1.4136,2.18613 1.03808,1.65473 -0.32411,-0.45866 -0.5868,-0.95885 -0.88019,-1.43829 -3.6767,-3.29199 0.002,-0.73605 -6.16961,-1.9327 -0.51923,-0.10067 1.03694,-0.21042 1.5519,-0.33158 4.09644,-0.96376 7.72165,-2.31807 11.63927,-3.90577 10.6052,-5.11503 20.73931,-11.2778 30.05255,-18.53431 0.76784,0.0867 6.61683,-5.73123 6.7686,-5.71922 12.22181,0.9668 11.24914,0.0583 14.00166,5.41062 0.3026,0.40096 0.52957,0.87444 0.90782,1.20284 0.56278,0.48861 1.28492,0.75651 1.87393,1.21228 6.63735,5.13603 13.11774,10.44048 19.88791,15.41323 9.10244,6.09815 18.67108,12.4492 29.49136,14.73931 8.94337,0.38125 18.03632,-1.08381 26.67682,-3.59695 6.38539,-2.64674 12.90826,-5.49702 10.63068,-13.4866 -0.85906,-1.58557 -0.40814,0.18781 -0.30083,0.1541 5.32746,-1.67368 10.36457,-4.2788 15.77274,-5.66124 0.35544,-0.0909 8.93642,7.15621 9.60153,7.6844 6.27084,4.30589 12.94876,6.60749 20.52426,6.66476 5.72047,0.0432 4.34831,0.93599 6.54271,-0.94234 11.01559,-3.37975 17.53267,-6.92561 20.0032,-18.72631 -0.12713,-11.2889 -2.71964,-8.53859 16.8976,-9.48536 0.44235,-0.0213 4.12329,4.41269 4.37008,4.69685 8.07426,8.25886 17.21987,16.40932 28.43156,19.83574 2.02634,0.61927 4.14273,0.88065 6.21411,1.32097 1.96689,0.0168 3.94514,0.26491 5.90066,0.0503 0.32965,-0.0362 0.34268,-0.62798 0.64389,-0.76846 1.52229,-0.70991 3.2428,-0.94621 4.72634,-1.73591 6.5927,-3.50932 10.52847,-10.69398 14.59121,-16.61131 13.18788,-21.88695 26.17621,-43.97674 42.00855,-64.0369 3.63472,-3.55308 7.80821,-8.49641 14.29833,-6.07833 3.47803,1.29583 4.29111,6.20979 5.64816,9.70463 0.56361,1.45149 -0.12683,3.12062 -0.0629,4.67911 0.15777,3.85188 0.1897,3.04193 1.99658,6.29133 8.91123,12.84734 23.96924,16.6805 38.20749,20.21911 6.3332,0.9306 9.96263,1.98017 16.32992,0.97029 1.16355,-0.18454 2.11079,-1.06935 3.21394,-1.48732 3.10179,-1.17522 6.32639,-2.01337 9.38979,-3.288 8.61501,-3.58459 10.59649,-5.21365 18.45818,-10.03715 4.07365,-3.53391 13.64418,-9.54365 11.27145,-16.66081 -0.5005,-1.50132 -2.0424,-2.98637 -3.03261,-4.09922 -3.35905,-3.33543 -5.76488,-5.08461 -5.25652,-11.19785 0.17223,-2.07121 2.23119,-3.53708 2.88703,-5.50646 2.26763,-8.11735 1.23271,-17.0886 -1.61537,-24.928874 -1.05024,-2.89116 -2.54492,-5.59591 -3.8174,-8.393866 -6.79469,-10.31958 -15.41383,-18.83672 -25.30019,-26.081472 -5.13709,-3.764503 -12.0317,-8.224606 -18.06334,-10.674829 -1.98467,-0.806226 -4.13226,-1.115271 -6.1984,-1.672918 0.416,0.101173 1.01984,-0.06327 1.24799,0.303521 0.16717,0.268775 -0.67517,0.02925 -0.91035,0.239314 -0.34115,0.304764 -0.49862,0.774519 -0.69169,1.191804 -0.5016,1.08414 -0.94511,2.195218 -1.38885,3.304965 -3.54533,8.866218 -0.4613,1.99434 -5.34964,12.154589 -5.46809,9.579456 -12.13044,20.996036 -23.13597,24.867112 -1.78479,0.62778 -3.70368,0.75793 -5.55552,1.13691 -3.66554,-1.33013 -7.68864,-1.90942 -10.99666,-3.990406 -1.78405,-1.12232 -5.61888,-8.60434 -6.66851,-10.48499 -3.0075,-5.388688 -6.04267,-10.633967 -9.48466,-15.749364 -5.20162,-6.819685 -11.13116,-14.426842 -19.17831,-18.005855 -1.30383,-0.579891 -2.74177,-0.779828 -4.11265,-1.169736 -1.95261,-0.43344 -3.87655,-1.031645 -5.85778,-1.300308 -1.55253,-0.210532 -17.94309,-1.152878 -18.03694,-1.158012 -10.5924,-0.579577 -21.18622,-0.930321 -31.7886,-1.247763 -0.70762,-0.01255 -1.41552,-0.06038 -2.12288,-0.03715 -1.71432,0.05624 -3.4284,0.140626 -5.13845,0.275277 -0.84256,0.06628 -2.88201,0.895965 -2.53271,0.115986 0.28553,-0.637595 0.8467,-1.116714 1.15991,-1.740828 0.074,-0.05925 0.20353,-0.271173 0.22234,-0.17748 1.19439,5.948712 -3.42563,11.951814 -9.36943,12.422949 -2.54561,0.201758 -5.10203,-0.222318 -7.65305,-0.333459 -12.51229,-2.972109 -24.90316,-6.443622 -37.47869,-9.124285 -13.30721,-1.982779 -26.71094,-4.741168 -40.21896,-4.466078 -0.56728,0.03038 -1.73233,0.666139 -1.70183,0.09126 0.0465,-0.876295 1.35339,-1.147066 1.79781,-1.900208 0.52273,-0.885822 0.73039,-1.928212 1.04136,-2.911091 0.0675,-0.213343 0.006,-0.872905 0.0903,-0.665901 2.25871,5.52726 -10.40185,5.726055 -15.90389,7.892465 -12.62624,-8.686026 -25.90722,-16.470055 -39.98362,-22.465048 7.49114,-2.7709373 -9.02005,-0.75675 -6.77372,-1.226545 2.03277,-0.425137 4.29136,0.01105 6.16358,-0.897152 1.29829,-0.6297623 1.43153,-2.7368923 2.70989,-3.4071973 0.51553,-0.270322 0.6827,0.978902 0.84272,1.544382 0.48955,1.7298243 0.72654,3.5230013 1.0898,5.2845093 1.94323,14.040757 -1.60733,27.632288 -8.0637,39.976081 -5.18596,7.287933 -7.89096,8.757713 -17.72709,8.252774 -2.90683,-0.149225 -11.23291,-4.747143 -14.25003,-6.057618 -0.29154,-0.839516 -11.83927,-3.987148 -11.85712,-4.028408 -0.41693,-0.963799 2.06441,0.252432 3.08008,0.470972 0.16524,0.03552 -0.36638,-0.02071 -0.49986,0.08423 -0.42251,0.332053 -0.73718,0.785088 -1.10576,1.177644 -6.92171,9.067435 -13.05693,18.713707 -19.73323,27.963357 -6.62236,7.734506 -10.52702,10.316406 -21.2054,6.715796 -1.5006,-0.50598 -2.5469,-1.90238 -3.85727,-2.799786 -1.16948,-0.80092 -2.38613,-1.52873 -3.57918,-2.29309 -7.17966,-3.75686 -15.67675,-10.188 -23.87164,-10.96866 3.23647,4.06324 8.22456,-3.399185 8.69331,-3.04342 1.36518,1.03614 -0.0431,6.44072 -0.18378,7.31311 -0.87109,1.58492 -1.24242,3.58814 -2.61327,4.75473 -9.66399,8.223866 -23.0036,0.92667 -32.73048,-3.26267 -1.82435,-0.74897 -4.2611,-1.8632 -6.26683,-2.33406 -0.51567,-0.121 -2.10959,-0.11812 -1.58114,-0.14903 5.41794,-0.31679 5.59881,0.8434 8.33769,-2.90759 -1.15556,7.21712 -6.85983,11.14228 -13.67981,11.8158 -0.56352,-0.60316 -1.95346,0.57319 -2.78911,0.15689 -0.17756,-0.0885 0.26368,-0.36176 0.46078,-0.37922 0.43498,-0.0385 0.24191,0.85597 0.28092,1.29675 0.701,5.509826 -0.021,10.966226 -2.43909,15.93774 -2.13418,3.30522 -3.73306,6.87444 -5.51993,10.37231 0.0202,2.00114 -3.09879,3.08139 -3.19058,5.02817 -0.29886,1.18814 -16.87702,-3.09568 -16.57816,-4.28381 l 0,0 c 0.84811,-2.59726 1.65547,-5.51452 3.8022,-7.36422 1.80684,-3.79564 3.5682,-7.610264 6.03843,-10.998084 0.10491,-0.0767 0.18702,-0.25159 0.31462,-0.23019 0.11071,0.0186 0.12852,0.41988 0.14631,0.30751 0.52447,-3.32733 -0.24843,-6.77294 -0.03,-10.103676 1.13489,-8.5055 4.30228,-15.439575 13.70404,-16.253132 0.75304,-0.0905 1.51438,-0.415892 2.25915,-0.271298 0.66182,0.1285 -0.8556,6.82391 0.70573,0.579275 1.30071,-2.873922 2.30625,-6.89943 5.85717,-8.090908 7.15111,-2.399486 13.56068,-0.282646 20.18801,2.141192 1.16525,0.450449 12.3583,4.398847 12.75441,4.819923 0.45584,0.484566 -1.41247,0.184045 -1.86892,0.66801 -1.98725,2.106988 -1.97788,3.378048 -2.4761,5.832408 0.056,-5.606726 -0.8468,-13.624766 5.71869,-16.920807 2.80152,-1.406415 6.20844,-0.752514 9.31267,-1.128764 11.12869,2.11222 21.33109,7.40506 30.10839,14.633921 1.08166,0.9382 2.17172,1.86654 3.24498,2.81459 0.25053,0.2213 1.05598,0.65566 0.72571,0.69282 -1.88761,0.21244 -3.838,-0.53181 -5.69606,-0.13343 -0.6671,0.14304 -1.00738,0.98819 -1.26835,1.62666 -0.0879,0.21488 0.44642,-0.10795 0.66963,-0.16184 0.60267,-0.81722 1.20532,-1.63444 1.80798,-2.45167 6.7234,-10.936019 13.50728,-21.931704 22.52348,-31.129786 3.00235,-2.45232 6.22922,-5.844274 10.37672,-6.401596 8.6446,-1.161614 16.76905,2.043608 24.41529,5.576453 2.65459,1.413319 5.26276,2.915284 7.92189,4.319828 0.4246,0.224264 1.75718,0.388741 1.31731,0.580368 -1.90003,0.827641 -4.12518,0.660642 -6.03156,1.473144 -0.37445,0.159594 -0.65362,1.298174 -0.25745,1.207256 0.56788,-0.130308 0.71703,-0.929994 1.07554,-1.394992 4.17736,-9.729394 7.34982,-19.989951 6.67226,-30.73855 -0.46158,-5.667984 -2.73597,-14.5539973 2.44595,-19.0448623 6.46741,-5.6049367 15.5216,-3.1383827 22.57932,-1.4513557 2.70558,1.0286947 5.47686,1.8947817 8.11668,3.0860817 12.61251,5.691771 24.2998,13.9566253 33.73914,24.1593553 -3.51615,2.504419 -13.82687,15.661343 -13.67305,5.511437 0.0307,-2.027666 0.10615,-4.1558 0.90814,-6.01368 2.00983,-4.656096 3.9766,-5.026482 7.77555,-7.081452 1.85093,-0.54051 3.64047,-1.387248 5.55279,-1.621538 17.03512,-2.087053 34.15754,1.302998 50.76516,4.754017 11.59879,3.301404 22.90839,7.421373 34.40928,11.028467 -0.92515,0.06967 -1.91991,-0.154698 -2.77545,0.208862 -0.39334,0.167137 -0.30987,0.807908 -0.51246,1.188301 -0.69442,1.303773 -1.6765,2.466693 -2.17594,3.859149 -0.28828,0.803778 0.006,1.71802 -0.12729,2.562469 -0.0459,0.290227 -0.0935,-0.580155 -0.14038,-0.870245 -0.11132,-1.171945 -0.22263,-2.343903 -0.33393,-3.515836 0.15716,-1.229926 0.0871,-2.512334 0.47149,-3.689752 4.26915,-13.079303 19.22257,-13.286967 30.48676,-13.940895 20.33378,-0.180531 41.1531,0.66773 60.43354,7.862139 2.17988,1.014644 4.43973,1.868713 6.53963,3.043934 9.71252,5.435576 17.1103,14.313743 23.66973,23.150864 3.593,5.763097 6.80254,11.456703 9.59522,17.662931 0.57497,1.277776 1.14843,2.557372 1.66321,3.861244 0.13749,0.34813 0.6578,1.04547 0.28998,1.08584 -2.04718,0.22465 -4.10806,-0.2943 -6.16206,-0.44145 0.078,0.32374 -0.0826,0.88161 0.23414,0.9712 1.49837,0.42389 4.24735,-2.37109 4.62827,-2.745483 4.38092,-4.305995 7.84005,-9.51821 10.86877,-14.846185 1.04053,-1.816533 2.1734,-3.58185 3.12159,-5.449597 3.998,-7.875443 7.83584,-20.073112 17.96707,-22.050405 4.13741,-0.807494 8.42674,0.04557 12.64011,0.06829 3.17966,0.817134 6.45271,1.325049 9.53902,2.451403 23.06561,8.417865 39.54927,25.853105 51.01376,47.295021 1.36222,3.84282 3.05564,7.5811 4.08664,11.528442 3.27106,12.523944 2.662,26.278964 -3.81016,37.601744 -0.78498,0.93746 -1.25526,3.33156 -2.35495,2.81239 -1.07355,-0.50685 1.07953,-2.26494 0.98087,-3.46112 -0.19154,-2.32214 -1.50642,-4.43415 -1.82243,-6.74226 -0.0512,-0.37415 0.6704,0.33682 0.97521,0.55412 0.84009,0.59888 1.68697,1.19639 2.453,1.8898 1.14226,1.03392 2.17326,2.18755 3.2599,3.28133 1.16294,1.80984 2.58366,3.47422 3.48879,5.42951 5.26193,11.36705 2.21861,23.30137 -5.44864,32.7223 -2.38557,2.9312 -5.3332,5.34167 -7.99979,8.01249 -3.45576,2.30559 -6.76312,4.85775 -10.36727,6.91676 -18.53567,10.58921 -39.72056,14.33339 -60.52325,9.43627 -20.835,-6.05839 -36.92747,-12.76635 -46.80642,-33.66079 -1.69175,-6.61643 -2.39998,-6.78558 -1.87889,-13.02773 0.0745,-0.89215 -0.14312,-2.97082 0.66145,-2.60101 2.32869,1.07042 2.95223,5.1201 5.49098,5.42908 9.28031,1.12952 11.81688,-8.27424 9.15725,-0.77357 -10.94892,23.75992 -26.21611,45.17913 -41.37268,66.31592 -6.50421,8.01612 -12.92281,16.72601 -22.00256,22.01314 -9.40075,5.47405 -20.12536,5.65015 -30.5595,3.84812 -2.91094,-0.83104 -5.90383,-1.40967 -8.73283,-2.49314 -13.69384,-5.24456 -24.92793,-15.54759 -33.39136,-27.41667 -0.9425,-1.6862 -1.99132,-3.31575 -2.82747,-5.05861 -0.64861,-1.35198 -2.8892,-3.43199 -1.61545,-4.20226 18.58014,-11.23621 17.39346,-4.51474 17.80295,8.05798 -0.45607,2.34763 -0.65285,4.76268 -1.36822,7.04288 -4.65621,14.84104 -15.95131,22.38099 -29.99844,26.76219 -4.26221,0.44869 -8.50619,1.14292 -12.78666,1.34606 -13.18919,0.62596 -25.56447,-4.61223 -35.7813,-12.71624 -1.257,-1.24012 -13.27625,-13.23946 -11.79834,-15.28662 11.75655,-16.2849 14.40514,-12.15228 19.02033,-2.36668 0.30739,1.98557 0.87383,3.94745 0.92214,5.95673 0.31509,13.10625 -8.74763,22.56394 -19.98198,27.42752 -2.47872,0.86574 -4.89941,1.92595 -7.43614,2.59723 -3.99949,1.05836 -9.7741,1.61585 -13.91651,1.83402 -7.81423,0.41153 -15.49185,0.77408 -23.15109,-1.09775 -12.54586,-3.90863 -24.46457,-9.56299 -35.06722,-17.49493 -9.23957,-7.22758 -19.55713,-14.83924 -24.55101,-25.88051 -1.39294,-4.98166 0.11367,1.2339 12.26784,1.7638 0.79389,0.0346 0.83432,-1.43127 1.49028,-1.88579 0.41079,-0.28465 -0.43642,0.90848 -0.69853,1.33718 -0.57085,0.93366 -1.12595,1.88367 -1.79771,2.74558 -0.68555,0.87963 -1.50703,1.64106 -2.26056,2.46159 -9.77751,9.93929 -21.4874,17.66492 -34.32228,22.96402 -2.58802,0.82079 -8.63256,2.85064 -11.49895,3.35668 -0.95546,0.1687 -1.94325,-0.0373 -2.90912,0.0519 -4.49382,0.41442 -2.28297,1.76772 -9.56908,0.66017 -1.4677,-0.22311 -2.68279,-1.2873 -4.02417,-1.93096 -3.74815,-3.89964 -6.94767,-8.20044 -9.93958,-12.73211 -5.73317,-8.62969 -10.4921,-17.82649 -15.6004,-26.83804 -0.36762,-0.55299 -1.75049,-1.54149 -1.10288,-1.659 1.07719,-0.19543 1.94762,1.54667 3.01711,1.3117 3.02177,-0.66388 5.83304,-2.1971 8.46898,-3.83519 0.66647,-0.41417 1.03638,-5.63534 0.085,1.12203 -1.8507,5.83488 -5.10949,10.7428 -10.48669,13.86495 -8.14945,4.89605 -17.28895,7.50201 -26.68306,8.65532 -10.98918,0.63541 -22.08757,2.16914 -33.044703,0.40065 -6.185565,-1.4066 -12.012339,-3.59878 -17.624202,-6.6051 -3.744776,-2.09988 -7.636335,-4.03714 -10.923954,-6.84155 -2.819711,-3.29232 -5.551067,-6.71587 -7.687405,-10.50579 -1.992173,-5.13173 -2.669251,-10.20046 -1.953752,-15.69152 0.205394,-4.04713 0.431683,-8.11799 -0.249579,-12.13723 -0.984726,-6.44019 -2.111902,-12.94984 -0.660577,-19.42855 1.71912,-5.75004 4.802035,-10.46702 7.980119,-15.48034 1.089447,-1.51633 2.083207,-3.10284 3.19946,-4.59901 0.734284,-0.98417 1.445413,-1.98894 2.241134,-2.92277 0.122186,-0.14325 0.397386,-0.10356 0.495776,-0.26447 0.262587,-0.4293 0.354756,-0.94408 0.532134,-1.41611 0.737505,0.63623 -0.07615,0.0526 0.269338,-1.3438 0.524434,-2.11928 0.87313,-4.35282 1.934215,-6.25472 1.718972,-3.08112 5.699084,-4.34536 8.888584,-4.49895 10.822923,-0.76016 21.734012,-0.99688 32.535932,0.18777 1.20288,-0.31302 5.57058,16.92849 4.36771,17.24152 z"
       inkscape:connector-curvature="0" />
    <path
       style="fill:#916f6f"
       d="m 287.3907,221.18777 c -14.89096,-7.9392 -39.1199,-25.89786 -39.1199,-28.99594 0,-5.63032 -15.00514,-1.35483 -28.77242,8.19829 -8.14783,5.65378 -18.01677,11.41114 -21.93098,12.79412 -7.0828,2.50252 -7.17641,2.42248 -19.63373,-16.78483 -14.64931,-22.58704 -21.36468,-25.70737 -29.72263,-13.81072 -8.70831,12.39534 -45.3011,16.83608 -63.061195,7.65282 l -8.89636,-4.60005 -1.589616,-19.31902 c -1.551639,-18.85766 -1.41478,-19.59515 5.731753,-30.88291 l 7.321381,-11.56391 16.020887,0 c 13.98385,0 15.83138,-0.5005 14.53054,-3.93635 -1.01049,-2.66895 -0.60028,-3.37881 1.27407,-2.20472 2.81891,1.76578 14.28198,-19.771134 14.35823,-26.976374 0.0205,-1.95156 2.95284,-5.228506 6.51596,-7.282086 5.46753,-3.15121 7.74129,-3.27157 14.57223,-0.77135 12.48788,4.570716 22.49735,4.049206 26.24044,-1.3672 3.18148,-4.60373 3.44544,-4.55807 14.41702,2.49415 15.86136,10.195216 22.9911,8.949196 35.00102,-6.11688 5.20008,-6.52333 11.16562,-14.506991 13.25678,-17.741487 3.61551,-5.592282 4.18817,-5.720117 11.66959,-2.604858 11.96015,4.980168 24.87964,5.994089 29.29599,2.29914 5.77779,-4.834006 12.38135,-21.619889 12.80375,-32.546435 0.20615,-5.331951 0.8894,-9.694463 1.51836,-9.694463 0.62894,0 7.92359,3.84299 16.21032,8.539966 14.30605,8.108758 16.32078,8.575676 39.90092,9.247226 16.98899,0.483838 32.43828,2.643344 48.90548,6.83599 13.23922,3.370803 25.62996,6.128728 27.53497,6.128728 1.90501,0 6.00432,-2.778574 9.10961,-6.174608 5.586,-6.109033 5.90084,-6.158252 29.64601,-4.633981 13.20005,0.847336 27.83901,2.105706 32.53106,2.79636 10.36649,1.525903 22.50395,13.10886 32.74284,31.246972 15.36795,27.224206 34.97151,22.817996 52.25151,-11.744311 3.15967,-6.319728 7.09693,-11.490432 8.74948,-11.490432 4.98967,0 23.13395,12.947911 33.56546,23.952583 15.08942,15.918506 20.99594,35.08519 14.56513,47.26401 -1.92201,3.63994 -1.40082,6.41792 2.36164,12.5882 2.65538,4.35465 4.21191,9.54458 3.45901,11.5332 -2.90404,7.67032 -34.95243,25.30412 -45.98877,25.30412 -19.06817,0 -48.38844,-16.26906 -48.38844,-26.84949 0,-6.95587 -6.30087,-15.74847 -11.21845,-15.65485 -2.17364,0.0414 -5.61441,1.37198 -7.6462,2.95691 -4.76677,3.71836 -23.13633,30.06802 -40.40133,57.95245 -20.89477,33.74683 -31.5763,36.11068 -57.85485,12.80344 -11.33487,-10.05324 -13.89156,-11.29718 -21.39466,-10.40937 -7.22317,0.85468 -8.52139,1.89354 -8.52139,6.81883 0,12.5497 -11.17995,22.05824 -25.93564,22.05824 -8.33625,0 -26.44193,-9.70626 -28.56476,-15.31326 -3.30444,-8.72784 -17.85109,-0.33629 -17.85109,10.29778 0,6.08222 -8.97964,10.62693 -25.86063,13.08837 -9.07613,1.32341 -12.65564,0.51083 -23.7084,-5.38201 l 0,0 z"
       id="path3172"
       inkscape:connector-curvature="0" />
    <path
       style="fill:#0000ff"
       id="path3174"
       d="m 357.40893,311.17513 c 3.32704,6.60764 6.01212,13.89039 7.27899,21.52786 0.41207,2.37281 -0.0186,4.66222 -0.29719,6.98618 -0.009,0.95666 -11.0263,0.79843 -11.01719,-0.15823 l 0,0 c -0.0241,-1.30034 0.0729,-2.59575 -0.10673,-3.86568 -1.70986,-6.26532 -4.41096,-12.06837 -6.11527,-18.34394 -0.35391,-0.89069 9.90349,-7.03688 10.25739,-6.14619 z"
       inkscape:connector-curvature="0" />
    <path
       style="fill:#0000ff"
       id="path3176"
       d="m 457.15741,309.29063 c 2.67415,4.51289 4.12042,9.73212 5.31267,15.04744 0.20197,1.0187 -11.52959,4.52627 -11.73156,3.50758 l 0,0 c -1.08303,-4.22971 -2.37829,-8.3521 -3.8385,-12.40883 -0.35391,-0.89069 9.90348,-7.03688 10.25739,-6.14619 z"
       inkscape:connector-curvature="0" />
    <path
       style="fill:#0000ff"
       id="path3178"
       d="m 228.51297,307.94725 c 1.94283,9.3085 2.38401,18.98351 2.11324,28.55322 -0.29909,4.11051 0.005,2.06643 -0.93506,6.12738 -0.17987,0.96024 -11.23827,-2.16354 -11.05839,-3.12378 l 0,0 c 0.1278,-1.0698 0.0277,-0.13533 -0.10304,-2.82473 -0.49618,-8.92547 -1.11592,-17.84648 -1.34914,-26.78906 -0.11189,-0.98404 11.2205,-2.92706 11.33239,-1.94303 z"
       inkscape:connector-curvature="0" />
    <path
       style="fill:#0000ff"
       id="path3180"
       d="m 521.74458,278.77091 c 2.46402,7.93322 4.36395,16.21205 5.29146,24.63774 0.13253,1.01637 -11.57228,3.318 -11.70482,2.30163 l 0,0 c -1.63731,-7.70125 -3.6484,-15.28961 -4.6404,-23.17866 -0.21655,-0.95984 10.83721,-4.72055 11.05376,-3.76071 z"
       inkscape:connector-curvature="0" />
    <path
       style="fill:#0000ff"
       id="path3182"
       d="m 185.53464,397.86214 c 2.77588,5.49463 5.89071,12.16882 5.1054,18.95429 -0.16568,1.43151 -0.65308,2.77835 -0.97962,4.16752 -0.62307,1.0785 -1.24615,2.15701 -1.86923,3.23552 -0.48486,0.78303 -9.50236,-7.63751 -9.0175,-8.42053 l 0,0 c 0.003,0.29157 0.007,0.58315 0.01,0.87472 0.16269,0.55744 0.55518,2.05872 0.0675,-0.99599 -0.49776,-3.11807 -1.68194,-6.09123 -2.66799,-9.00295 -0.30113,-0.88921 -0.60384,-1.77759 -0.90577,-2.6664 -0.3539,-0.89068 9.90349,-7.03687 10.2574,-6.14618 z"
       inkscape:connector-curvature="0" />
    <path
       style="fill:#0000ff"
       id="path3184"
       d="m 185.01665,485.14879 c -0.0244,9.15376 -1.2907,18.1698 -3.7544,26.79143 -0.2899,0.87029 -0.57981,1.74058 -0.86971,2.61087 -0.22034,0.97756 -11.47811,-2.84891 -11.25778,-3.82647 l 0,0 c 0.16345,-0.80153 0.32691,-1.60306 0.49036,-2.40459 1.68569,-8.2977 2.53918,-16.77811 4.05914,-25.11427 0.11188,-0.98403 11.44427,0.95899 11.33239,1.94303 z"
       inkscape:connector-curvature="0" />
    <path
       style="fill:#0000ff"
       id="path3186"
       d="m 171.72403,613.57619 c 2.69055,6.34682 3.46911,13.36039 4.05938,20.365 0.20154,1.8219 0.0993,0.94753 0.30442,2.62356 0.15304,0.95262 -10.81749,3.61051 -10.97054,2.6579 l 0,0 c -0.4811,-1.8362 -0.21594,-0.80236 -0.78669,-3.1049 -1.20707,-6.02383 -1.88997,-12.20999 -3.39314,-18.15746 -0.25244,-0.93664 10.53412,-5.32074 10.78657,-4.3841 z"
       inkscape:connector-curvature="0" />
    <path
       style="fill:#0000ff"
       id="path3188"
       d="m 211.63246,568.00827 c 3.10971,10.32894 4.15674,21.38692 4.20619,32.33827 0.0984,3.7692 -0.64855,6.6058 -1.84402,9.99371 -0.35047,0.86811 -10.34793,-5.21834 -9.99746,-6.08646 l 0,0 c -0.76631,4.61596 0.1327,-3.26934 -0.53985,-3.21175 -0.92748,-10.38326 -2.0815,-20.72998 -3.15725,-31.09076 -0.11189,-0.98403 11.2205,-2.92704 11.33239,-1.94301 z"
       inkscape:connector-curvature="0" />
    <path
       style="fill:#0000ff"
       id="path3190"
       d="m 197.60745,768.73678 c 0.10131,1.21848 0.20262,2.43696 0.30393,3.65543 0,1.04553 -12.04064,1.04553 -12.04064,0 l 0,0 c 0.10131,-1.21847 0.20262,-2.43695 0.30393,-3.65543 0,-0.99274 11.43278,-0.99274 11.43278,0 z"
       inkscape:connector-curvature="0" />
    <path
       style="fill:#0000ff"
       id="path3192"
       d="m 225.63135,713.28641 c 2.26002,3.51455 3.76492,7.57915 5.29634,11.60424 0.31452,1.00548 -11.26477,6.4676 -11.57929,5.46213 l 0,0 c -1.4755,-3.8884 -3.03195,-7.73268 -4.36908,-11.69762 -0.30914,-0.92496 10.34289,-6.29371 10.65203,-5.36875 z"
       inkscape:connector-curvature="0" />
    <path
       style="fill:#0000ff"
       id="path3194"
       d="m 197.81209,771.8742 c 2.67969,6.61366 4.84618,13.40697 5.65018,20.75044 0.0354,3.85096 0.12361,1.98096 -0.23358,5.61209 -0.078,0.98238 -11.39143,-0.37234 -11.31342,-1.35473 l 0,0 c 0.10761,-1.29683 0.0922,-0.56238 -0.037,-2.20362 -1.19516,-6.3108 -3.66141,-12.10922 -4.85273,-18.42009 -0.25244,-0.93663 10.53412,-5.32073 10.78657,-4.38409 z"
       inkscape:connector-curvature="0" />
    <path
       style="fill:#0000ff"
       id="path3196"
       d="m 182.46617,698.3787 c 2.69818,6.72135 3.86098,14.0846 3.91112,21.53038 -0.23968,3.49562 -0.062,1.82658 -0.50446,5.01155 -0.0987,0.97981 -11.38234,-0.73374 -11.28367,-1.71355 l 0,0 c 0.14704,-1.73766 0.10181,-0.80363 0.10411,-2.80413 -0.43665,-6.0139 -1.79897,-11.80905 -3.01367,-17.64016 -0.25244,-0.93663 10.53413,-5.32073 10.78657,-4.38409 z"
       inkscape:connector-curvature="0" />
    <path
       style="fill:#0000ff"
       id="path3198"
       d="m 177.86239,862.3302 c 2.27991,3.5165 3.62411,7.70239 4.8515,11.88408 0.25217,0.98831 -11.12951,5.36779 -11.38169,4.37947 l 0,0 c -1.31535,-4.02099 -2.92726,-7.86601 -4.25637,-11.87945 -0.25244,-0.93664 10.53412,-5.32073 10.78656,-4.3841 z"
       inkscape:connector-curvature="0" />
    <path
       style="fill:#0000ff"
       id="path3200"
       d="m 228.29929,851.65479 c 0.95081,10.36244 1.94804,20.71742 3.08238,31.0529 0.46767,4.27551 0.80665,8.56684 0.63021,12.87898 0.0307,0.9787 -11.2403,1.51246 -11.27104,0.53375 l 0,0 c -0.69832,-3.81109 -1.48634,-7.59853 -2.03451,-11.4496 -1.46453,-10.86142 -2.66822,-22.00635 -1.83982,-33.01603 0,-0.99275 11.43278,-0.99275 11.43278,0 z"
       inkscape:connector-curvature="0" />
    <path
       style="fill:#0000ff"
       id="path3202"
       d="m 238.88177,660.15358 c 5.09674,5.8565 7.73936,12.76462 8.24618,21.24469 -0.37324,4.68262 0.0736,2.30133 -1.49649,7.09698 -0.32522,0.90282 -10.72241,-4.74531 -10.39718,-5.64814 l 0,0 c 0.21213,1.01035 0.11455,0.8765 0.2484,-0.4443 -0.46075,-5.22925 -3.18741,-9.51504 -5.60338,-13.67398 -0.49377,-0.78172 8.50869,-9.35697 9.00247,-8.57525 z"
       inkscape:connector-curvature="0" />
    <path
       style="fill:#0000ff"
       id="path3204"
       d="m 240.7897,773.41878 c 1.11974,5.57868 2.43134,11.08302 3.3168,16.72909 0.15936,1.00602 -11.42621,3.7737 -11.58558,2.76769 l 0,0 c -1.30589,-5.75553 -2.96114,-11.52643 -3.06361,-17.55376 -0.11188,-0.98403 11.22051,-2.92706 11.33239,-1.94302 z"
       inkscape:connector-curvature="0" />
    <path
       style="fill:#0000ff"
       id="path3206"
       d="m 418.42902,522.58507 c 5.36388,5.4698 10.05114,12.36224 13.29076,19.98152 0.81722,1.92203 1.42668,3.96685 2.14002,5.95026 3.1034,9.76841 3.61097,20.02646 0.94181,29.97104 -0.19424,0.98503 -11.53816,-2.38823 -11.34393,-3.37327 l 0,0 c 1.29211,-7.09828 0.67286,-14.46836 -1.55457,-21.19867 -3.09247,-8.40428 -7.62344,-15.75222 -12.47656,-22.75562 -0.49377,-0.78173 8.50869,-9.35698 9.00247,-8.57526 z"
       inkscape:connector-curvature="0" />
    <path
       style="fill:#0000ff"
       id="path3208"
       d="m 493.98762,575.00514 c 4.45589,7.08391 7.22245,15.39774 7.86698,24.29198 0.0877,1.01622 -11.61541,2.53956 -11.70312,1.52334 l 0,0 c -1.11203,-6.99809 -4.18276,-13.16523 -6.42126,-19.66913 -0.35391,-0.89068 9.90349,-7.03687 10.2574,-6.14619 z"
       inkscape:connector-curvature="0" />
    <path
       style="fill:#0000ff"
       id="path3210"
       d="m 549.23292,573.12064 c 2.18742,2.83555 1.04367,1.20642 3.34453,4.97726 0.41895,0.91204 -10.08439,8.18794 -10.50334,7.2759 l 0,0 c -2.12874,-4.01111 -1.09559,-1.97567 -3.09858,-6.10697 -0.35391,-0.89069 9.90349,-7.03687 10.25739,-6.14619 z"
       inkscape:connector-curvature="0" />
    <path
       style="fill:#0000ff"
       id="path3212"
       d="m 557.1356,460.07922 c 5.14552,7.21989 8.74928,16.15778 10.64666,25.44205 0.21129,0.99896 -11.29306,4.66837 -11.50435,3.66941 l 0,0 c -2.5694,-7.76342 -6.04863,-15.04588 -9.33139,-22.37436 -0.38793,-0.88475 9.80115,-7.62186 10.18908,-6.7371 z"
       inkscape:connector-curvature="0" />
    <path
       style="fill:#0000ff"
       id="path3214"
       d="m 536.75227,393.72127 c 0.2305,4.69996 -0.62295,9.29286 -1.37176,13.86163 -0.15956,1.06464 -12.42031,-1.70623 -12.26075,-2.77087 l 0,0 c 0.72541,-3.70058 1.53512,-7.37347 2.19972,-11.09076 0,-0.99275 11.43279,-0.99275 11.43279,0 z"
       inkscape:connector-curvature="0" />
    <path
       style="fill:#0000ff"
       id="path3216"
       d="m 503.52493,458.86003 c 4.41358,16.3059 6.01631,33.45722 7.18332,50.49937 0.43104,5.81471 0.31006,11.59155 -0.29239,17.36346 -0.005,1.03769 -11.95501,0.95502 -11.95025,-0.0827 l 0,0 c -0.61645,-5.25046 -1.20327,-10.50618 -1.72168,-15.77284 -1.67745,-16.33909 -3.09963,-32.72134 -4.66367,-49.0737 -0.16892,-0.99378 11.27575,-3.92741 11.44467,-2.93363 z"
       inkscape:connector-curvature="0" />
    <path
       style="fill:#0000ff"
       id="path3218"
       d="m 524.76005,655.14708 c 1.35777,6.72391 2.38076,13.51386 3.24512,20.35617 0.11758,1.10162 -12.56892,3.14357 -12.6865,2.04195 l 0,0 c -0.88177,-6.86511 -1.96311,-13.73815 -2.0327,-20.71064 -0.0972,-0.99634 11.37692,-2.68381 11.47408,-1.68748 z"
       inkscape:connector-curvature="0" />
    <path
       style="fill:#0000ff"
       id="path3220"
       d="m 467.90026,662.5732 c 2.97778,7.74363 4.76211,16.00429 6.35494,24.30637 0.19723,1.01157 -11.45222,4.43675 -11.64945,3.42518 l 0,0 c -2.12975,-7.6604 -4.01426,-15.46641 -5.49205,-23.34746 -0.25244,-0.93664 10.53412,-5.32073 10.78656,-4.38409 z"
       inkscape:connector-curvature="0" />
    <path
       style="fill:#0000ff"
       id="path3222"
       d="m 512.40272,746.49465 c 2.14822,2.41776 3.60717,5.50432 5.11014,8.52037 0.38161,0.93888 -10.43064,7.56621 -10.81225,6.62734 l 0,0 c -1.51299,-3.00639 -3.1239,-5.93396 -4.55529,-9.00152 -0.3539,-0.89069 9.90349,-7.03688 10.2574,-6.14619 z"
       inkscape:connector-curvature="0" />
    <path
       style="fill:#0000ff"
       id="path3224"
       d="m 572.10543,757.75382 c 0.78413,9.05295 1.66194,18.08302 2.08208,27.17699 -0.0145,4.38284 0.32717,9.16266 -1.47571,13.15887 -0.3354,0.74344 -0.88022,1.31187 -1.32032,1.96782 -2.34693,1.87128 -1.45555,1.2422 -2.6015,2.03458 -0.63055,0.60238 -7.56769,-10.3482 -6.93714,-10.95058 l 0,0 c 2.20611,-1.4201 2.26651,-1.92969 1.25699,-0.0634 -0.2544,0.83645 -0.25673,1.76979 -0.52377,2.60028 -0.0949,0.2951 0.0167,-0.63466 0.008,-0.95177 -0.0584,-2.24424 -0.35356,-4.46869 -0.54089,-6.69813 -0.92004,-9.36307 -2.3316,-18.82736 -1.49607,-28.27467 0,-1.00274 11.5479,-1.00274 11.5479,0 z"
       inkscape:connector-curvature="0" />
    <path
       style="fill:#0000ff"
       id="path3226"
       d="m 483.25522,845.02978 c 2.01624,9.07976 2.32835,16.27165 0.0639,25.32152 -1.59356,4.9671 -4.40187,8.69355 -7.74609,11.95171 -0.53853,0.74204 -9.08401,-8.61049 -8.54548,-9.35253 l 0,0 c 1.76498,-1.95643 3.74858,-3.39055 4.72238,-6.22627 0.39469,-1.58552 0.92411,-3.40909 1.02787,-5.07965 0.30422,-4.89793 -0.96423,-9.77266 -0.85493,-14.67176 -0.11187,-0.98404 11.22051,-2.92705 11.33239,-1.94302 z"
       inkscape:connector-curvature="0" />
    <path
       style="fill:#0000ff"
       id="path3228"
       d="m 417.25873,879.29071 c 2.56296,6.02217 3.24627,12.77688 4.35933,19.33186 0.10216,0.24861 0.20431,0.49722 0.30647,0.74583 0.28702,0.92277 -10.33987,5.90737 -10.62689,4.9846 l 0,0 c -0.30532,-0.83002 -0.61064,-1.66004 -0.91596,-2.49006 -1.67597,-5.9399 -2.55062,-12.13249 -3.90951,-18.18814 -0.25245,-0.93664 10.53412,-5.32074 10.78656,-4.38409 z"
       inkscape:connector-curvature="0" />
    <path
       style="fill:#0000ff"
       id="path3230"
       d="m 517.00721,926.40321 c 2.35851,5.73582 3.38441,12.01255 3.88971,18.35153 0.0872,1.02632 -11.73216,2.54044 -11.81934,1.51412 l 0,0 c -0.67891,-5.2371 -1.75991,-10.35598 -2.85694,-15.48156 -0.25244,-0.93664 10.53412,-5.32073 10.78657,-4.38409 z"
       inkscape:connector-curvature="0" />
    <path
       style="fill:#0000ff"
       id="path3232"
       d="m 555.56861,909.27442 c 4.24223,8.21639 7.15452,17.42397 9.67509,26.62163 0.18494,0.94699 0.36988,1.89399 0.55482,2.84098 0.21658,0.97358 -10.99544,4.73483 -11.21201,3.76125 l 0,0 c -0.23521,-0.62326 -0.47042,-1.24651 -0.70564,-1.86977 -3.38612,-8.44942 -6.39872,-17.10741 -8.96429,-25.98535 -0.30914,-0.92495 10.34289,-6.2937 10.65203,-5.36874 z"
       inkscape:connector-curvature="0" />
    <path
       style="fill:#0000ff"
       id="path3234"
       d="m 503.42488,812.48074 c 5.45839,7.88758 10.13771,16.64181 14.28649,25.64535 0.40051,0.94255 -10.45421,7.89809 -10.85471,6.95553 l 0,0 c -4.95748,-8.28287 -9.57024,-16.85904 -13.62086,-25.86378 -0.38793,-0.88475 9.80115,-7.62186 10.18908,-6.7371 z"
       inkscape:connector-curvature="0" />
    <path
       style="fill:#0000ff"
       id="path3236"
       d="m 289.8876,334.67018 c 1.9404,4.61494 2.84973,9.66567 3.60104,14.73006 0.13705,1.03227 -11.75079,3.41251 -11.88785,2.38024 l 0,0 c -0.7317,-4.27367 -1.60562,-8.49981 -2.49975,-12.72621 -0.25244,-0.93663 10.53412,-5.32073 10.78656,-4.38409 z"
       inkscape:connector-curvature="0" />
    <path
       style="fill:#0000ff"
       id="path3238"
       d="m 259.20481,411.59476 c 2.04001,9.73725 2.4185,19.85767 2.19103,29.86536 -0.0493,3.57247 -0.42062,7.11189 -0.9052,10.62796 -0.0661,0.97683 -11.31548,-0.17043 -11.24941,-1.14726 l 0,0 c 0.0409,-3.10666 -0.0148,-6.21294 -0.0975,-9.31817 -0.43489,-9.36079 -1.02109,-18.71311 -1.27136,-28.08487 -0.11188,-0.98403 11.22051,-2.92705 11.3324,-1.94302 z"
       inkscape:connector-curvature="0" />
    <path
       style="fill:#0000ff"
       id="path3240"
       d="m 314.57467,429.53091 c 2.71798,7.14527 3.34436,14.92116 4.00883,22.64022 0.10956,1.00891 -11.50933,2.91159 -11.61889,1.90268 l 0,0 c -1.15119,-6.92546 -2.11151,-13.89952 -3.4437,-20.78218 -0.21655,-0.95984 10.83722,-4.72056 11.05376,-3.76072 z"
       inkscape:connector-curvature="0" />
    <path
       style="fill:#0000ff"
       id="path3242"
       d="m 423.3971,417.58819 c 2.1576,5.68312 3.50991,11.76468 5.31358,17.61585 0.5258,1.65152 0.78173,3.33753 1.43347,4.90869 0.31857,0.88166 -9.83482,6.41403 -10.15339,5.53237 l 0,0 c -0.862,-1.87481 -1.50395,-3.85817 -2.2342,-5.81089 -2.09757,-5.77696 -4.11701,-11.63587 -5.14602,-17.86193 -0.25245,-0.93664 10.53412,-5.32074 10.78656,-4.38409 z"
       inkscape:connector-curvature="0" />
    <path
       style="fill:#0000ff"
       id="path3244"
       d="m 395.56981,378.64527 c 0.0821,1.11046 0.16425,2.22092 0.24637,3.33139 0,1.03553 -11.92553,1.03553 -11.92553,0 l 0,0 c 0.0821,-1.11047 0.16425,-2.22093 0.24637,-3.33139 0,-0.99276 11.43279,-0.99276 11.43279,0 z"
       inkscape:connector-curvature="0" />
    <path
       style="fill:#0000ff"
       id="path3246"
       d="m 259.19505,514.70114 c 4.18964,5.92466 7.52149,12.60341 10.51727,19.50256 1.1167,3.27421 0.60993,1.76751 1.5258,4.51732 0.29324,0.92478 -10.35674,6.01744 -10.64998,5.09266 l 0,0 c -0.98029,-2.2025 -0.46573,-1.10244 -1.54621,-3.29837 -3.45829,-6.4799 -7.23386,-12.75379 -10.10427,-19.66798 -0.35391,-0.89068 9.90349,-7.03688 10.25739,-6.14619 z"
       inkscape:connector-curvature="0" />
    <path
       style="fill:#0000ff"
       id="path3248"
       d="m 487.84925,380.90163 c 4.38238,8.50637 6.04108,18.40552 6.10037,28.34671 0.0313,1.04817 -12.03969,1.59136 -12.07097,0.54319 l 0,0 c -0.58841,-7.79638 -2.07462,-15.3963 -4.2868,-22.74371 -0.3539,-0.89069 9.90349,-7.03688 10.2574,-6.14619 z"
       inkscape:connector-curvature="0" />
    <path
       style="fill:#0000ff"
       id="path3250"
       d="m 380.85417,373.84381 c -0.93337,-4.75575 -0.50423,-2.24166 -1.24811,-7.55223 -0.0956,-1.0532 12.03331,-2.71374 12.12892,-1.66054 l 0,0 c 0.38153,5.08222 0.23792,2.65833 0.45157,7.26974 0.11189,0.98404 -11.2205,2.92706 -11.33238,1.94303 z"
       inkscape:connector-curvature="0" />
    <path
       style="fill:#0000ff"
       id="path3252"
       d="m 397.30903,372.36018 c 1.45869,4.73265 1.97994,10.56799 -0.81809,14.85115 -0.82303,1.25986 -1.7613,2.74236 -3.048,3.07711 -2.41397,0.62802 -4.93124,-0.23985 -7.39685,-0.35978 -0.98672,-1.33965 -2.16403,-2.50003 -2.96016,-4.01893 -2.83271,-5.40432 -2.06829,-12.91436 -1.30819,-18.86757 0.10004,-1.01206 11.75515,0.72528 11.65512,1.73733 l 0,0 c -0.25749,2.44681 -0.49578,4.87306 -0.4803,7.3461 0.0118,1.8752 0.19953,2.69973 0.0527,2.71527 -0.38538,0.0408 -0.67251,-0.46957 -1.00876,-0.70435 -1.67266,0.24795 -3.43157,0.0472 -5.01798,0.74387 -1.49253,0.65545 -0.27019,3.38217 -0.13514,1.4655 0.0401,-0.56852 -0.0136,-1.14286 -0.0642,-1.71012 -0.0566,-0.6354 -0.17115,-1.26099 -0.25672,-1.89149 -0.25244,-0.93663 10.53412,-5.32072 10.78656,-4.38409 z"
       inkscape:connector-curvature="0" />
    <path
       style="fill:#0000ff"
       id="path3273"
       d="m 124.00005,255.75589 c 1.32509,10.9998 1.10468,22.11971 0.63849,33.16728 -0.34697,4.50895 -0.006,2.43854 -0.88309,6.23266 -0.0762,0.76787 -10.93548,-0.30917 -10.85932,-1.07704 l 0,0 c -0.20244,-2.74488 -0.074,-1.02617 -0.39181,-5.15562 -0.46619,-11.04757 -0.68661,-22.16748 0.63849,-33.16728 0,-0.76772 10.85724,-0.76772 10.85724,0 z"
       inkscape:connector-curvature="0" />
    <path
       style="fill:#0000ff"
       id="path3275"
       d="m 138.37752,325.95671 c 1.97467,7.20244 1.84746,12.36815 -1.22241,19.19193 -2.42331,3.3547 -1.07195,1.84546 -4.02421,4.5543 -0.52758,0.55825 -8.4224,-6.90279 -7.89482,-7.46104 l 0,0 c 1.21645,-0.60041 0.66081,-0.23469 1.67341,-1.08723 2.26137,-4.25102 1.14354,-9.14327 0.91856,-13.72502 -0.10415,-0.74596 10.44532,-2.2189 10.54947,-1.47294 z"
       inkscape:connector-curvature="0" />
    <path
       style="fill:#0000ff"
       id="path3277"
       d="m 164.06158,317.86445 c 3.93183,5.02449 7.08653,11.06804 6.80673,17.64041 -0.0571,1.3404 -0.38821,2.655 -0.58231,3.98249 -1.16673,4.5629 -4.22299,8.01834 -7.32407,11.38754 -0.42734,0.6344 -9.39923,-5.40901 -8.9719,-6.04341 l 0,0 c 1.79162,-2.25465 4.09535,-4.25334 5.15988,-6.96218 1.25544,-5.27056 -1.94947,-9.67653 -4.10349,-14.26725 -0.40571,-0.63747 8.60945,-6.37507 9.01516,-5.7376 z"
       inkscape:connector-curvature="0" />
    <path
       style="fill:#0000ff"
       id="path3279"
       d="m 104.20776,446.69632 c 4.15265,11.04739 4.43206,23.04611 4.62559,34.70517 -0.0391,11.92251 -2.49844,22.26582 -6.42503,33.37752 -1.21497,2.83267 -1.88224,5.84155 -2.707607,8.79826 -0.156486,0.77811 -11.160539,-1.43493 -11.004054,-2.21303 l 0,0 c 0.665768,-3.27184 1.292391,-6.56138 2.364635,-9.73224 3.054926,-9.78835 4.815036,-19.8006 4.677155,-30.10198 -0.06971,-10.68246 -0.236339,-21.39567 -1.820781,-31.98284 -0.201586,-0.72762 10.088502,-3.57848 10.290092,-2.85086 z"
       inkscape:connector-curvature="0" />
    <path
       style="fill:#0000ff"
       id="path3281"
       d="m 94.091804,363.09957 c 2.372031,6.16527 3.343255,12.69773 3.552368,19.26107 0.03068,0.8255 -11.643606,1.2593 -11.674281,0.43381 l 0,0 c -0.371208,-6.12888 -1.762655,-12.12096 -2.427553,-18.22195 -0.104152,-0.74596 10.445314,-2.21889 10.549466,-1.47293 z"
       inkscape:connector-curvature="0" />
    <path
       style="fill:#0000ff"
       id="path3283"
       d="m 135.5113,422.68936 c 3.49068,5.02611 5.28647,10.82151 5.49525,16.89594 -0.33482,2.44419 -0.65083,4.75118 -0.48856,7.21149 0.0112,0.77055 -10.88596,0.92933 -10.89718,0.15879 l 0,0 c 0.0376,-2.29438 0.21464,-4.54673 0.51604,-6.80918 -0.49665,-4.51335 -2.43836,-8.64925 -4.17429,-12.79783 -0.32946,-0.6752 9.21928,-5.3344 9.54874,-4.65921 z"
       inkscape:connector-curvature="0" />
    <path
       style="fill:#0000ff"
       id="path3285"
       d="m 128.55213,638.94397 c 4.52777,8.59999 7.05889,17.99169 9.69128,27.2884 0.35335,1.54589 0.7067,3.09179 1.06005,4.63768 0.16987,0.82912 -11.55559,3.23149 -11.72547,2.40237 l 0,0 c -0.36365,-1.37667 -0.7273,-2.75335 -1.09095,-4.13003 -2.70291,-8.68076 -5.52582,-17.3403 -7.85103,-26.12857 -0.28778,-0.70117 9.62833,-4.77103 9.91612,-4.06985 z"
       inkscape:connector-curvature="0" />
    <path
       style="fill:#0000ff"
       id="path3287"
       d="m 145.32146,546.69318 c 0.11217,1.00556 0.22434,2.01112 0.33651,3.01669 0,0.80016 -11.31594,0.80016 -11.31594,0 l 0,0 c 0.11217,-1.00557 0.22434,-2.01113 0.33651,-3.01669 0,-0.75257 10.64292,-0.75257 10.64292,0 z"
       inkscape:connector-curvature="0" />
    <path
       style="fill:#0000ff"
       id="path3289"
       d="m 106.91872,595.00731 c 5.63539,6.78377 10.69363,14.20694 13.23583,22.74672 0.5549,1.86403 0.84108,3.79772 1.26162,5.69657 0.32006,5.16657 1.21972,12.13046 -2.60373,16.45296 -0.94044,1.06319 -2.23831,1.74618 -3.35747,2.61928 -0.62975,0.41717 -6.52942,-8.48883 -5.89967,-8.906 l 0,0 c -0.1569,0.4693 -0.43048,0.91471 -0.47069,1.40791 -0.013,0.15891 0.33312,-0.13847 0.37963,-0.29097 0.20847,-0.68365 0.29651,-1.40235 0.35398,-2.11476 0.24545,-3.04288 -0.0104,-3.56018 -0.42662,-6.75855 -1.10265,-4.17953 -1.17267,-5.07245 -2.97729,-9.16977 -2.43406,-5.52647 -5.93056,-10.49357 -8.510752,-15.94579 -0.405709,-0.63747 8.609462,-6.37507 9.015162,-5.7376 z"
       inkscape:connector-curvature="0" />
    <path
       style="fill:#0000ff"
       id="path3291"
       d="m 121.22625,567.64297 c 1.35689,2.57123 2.07174,5.37724 2.80588,8.1672 0.16583,0.78044 -10.87119,3.12571 -11.03702,2.34527 l 0,0 c -0.58717,-2.40083 -1.20861,-4.79188 -1.81022,-7.18905 -0.235,-0.71003 9.80636,-4.03345 10.04136,-3.32342 z"
       inkscape:connector-curvature="0" />
    <path
       style="fill:#0000ff"
       id="path3293"
       d="m 74.08339,686.2144 c 4.933306,8.27016 9.659554,16.62293 13.845814,25.29987 1.533132,4.65801 4.288344,9.52584 3.984088,14.61878 -0.05159,0.86359 -0.292092,1.70542 -0.438139,2.55813 -0.135323,0.72603 -10.402868,-1.18774 -10.267544,-1.91376 l 0,0 c 0.0093,1.00921 0.06492,0.58197 -0.331855,-0.42002 -1.364571,-3.44602 -3.032388,-6.76302 -4.525049,-10.15275 -4.402195,-8.7252 -9.433747,-17.28332 -12.308667,-26.66683 -0.235002,-0.71003 9.80635,-4.03345 10.041352,-3.32342 z"
       inkscape:connector-curvature="0" />
    <path
       style="fill:#0000ff"
       id="path3295"
       d="m 109.80609,810.24243 c 1.64941,6.20444 1.96434,12.65111 2.01299,19.03922 -0.0906,4.19916 -0.0457,2.08453 -0.13492,6.34391 -0.021,0.80368 -11.38671,0.50641 -11.36569,-0.29727 l 0,0 c 0.16789,-4.01167 0.12077,-2.03855 0.14835,-5.91917 -0.117,-5.92401 -0.76863,-11.7906 -1.210196,-17.69376 -0.104152,-0.74596 10.445316,-2.21889 10.549466,-1.47293 z"
       inkscape:connector-curvature="0" />
    <path
       style="fill:#0000ff"
       id="path3297"
       d="m 119.41235,920.81479 c 0.93509,0.29615 1.87018,0.59229 2.80526,0.88844 0.64912,0.48668 -6.23359,9.66655 -6.88271,9.17987 l 0,0 c -1.07604,-0.71708 -2.15208,-1.43416 -3.22811,-2.15125 -0.55982,-0.51658 6.74574,-8.43364 7.30556,-7.91706 z"
       inkscape:connector-curvature="0" />
    <path
       style="fill:#0000ff"
       id="path3299"
       d="m 161.44901,885.69023 c 3.02041,8.03235 4.70223,16.45482 6.0098,24.91002 0.39268,2.30126 0.38724,4.58794 0.18644,6.89761 -0.009,0.7439 -10.52935,0.61597 -10.5203,-0.12793 l 0,0 c -0.30483,-1.63893 -0.74804,-3.24757 -1.14411,-4.86583 -1.95659,-8.03601 -3.71376,-16.15349 -5.01871,-24.31668 -0.17657,-0.74154 10.3103,-3.23873 10.48688,-2.49719 z"
       inkscape:connector-curvature="0" />
    <path
       style="fill:#0000ff"
       id="path3301"
       d="m 146.94895,754.52814 c 0.20619,0.85554 0.41238,1.71108 0.61858,2.56662 0.0983,0.7797 -10.92839,2.17021 -11.02671,1.3905 l 0,0 c -0.0471,-0.82806 -0.0942,-1.65612 -0.14134,-2.48418 -0.10415,-0.74596 10.44531,-2.2189 10.54947,-1.47294 z"
       inkscape:connector-curvature="0" />
    <path
       style="fill:#0000ff"
       id="path3303"
       d="m 622.77919,393.83918 c 3.59705,6.86563 5.9042,14.37831 6.98227,22.03878 0.35095,2.66054 -0.0224,5.17512 -0.64687,7.74143 -0.13712,0.73637 -10.55087,-1.20282 -10.41375,-1.93918 l 0,0 c 0.20326,-1.38438 -0.0822,-2.75898 -0.31676,-4.12538 -1.55412,-7.07535 -4.00116,-13.87995 -5.89498,-20.86479 -0.20159,-0.72762 10.0885,-3.57848 10.29009,-2.85086 z"
       inkscape:connector-curvature="0" />
    <path
       style="fill:#0000ff"
       id="path3305"
       d="m 641.19262,233.1508 c 7.46477,6.48519 12.1596,15.24874 16.1915,24.11751 3.60733,7.31354 5.32875,15.29444 6.68191,23.27438 0.10117,0.73857 0.20235,1.47714 0.30353,2.21571 0.13027,0.76349 -10.66703,2.60581 -10.7973,1.84232 l 0,0 c -0.18998,-0.68901 -0.37997,-1.37803 -0.56995,-2.06705 -1.83966,-7.08172 -3.41039,-14.28074 -6.80766,-20.83596 -3.92103,-7.66264 -8.16242,-15.172 -13.50228,-21.95344 -0.46622,-0.60106 8.03402,-7.19453 8.50025,-6.59347 z"
       inkscape:connector-curvature="0" />
    <path
       style="fill:#0000ff"
       id="path3307"
       d="m 611.03575,250.97889 c 1.19124,9.49013 1.0822,19.04863 0.0585,28.53943 -0.45264,3.79347 -1.01982,7.54502 -2.4946,11.07462 -0.23856,0.69958 -10.13212,-2.6741 -9.89357,-3.37368 l 0,0 c -0.01,-2.2274 0.15053,-5.91356 0.37704,-8.52317 0.49183,-9.23892 0.26697,-18.515 1.3097,-27.7172 0,-0.75256 10.64293,-0.75256 10.64293,0 z"
       inkscape:connector-curvature="0" />
    <path
       style="fill:#0000ff"
       id="path3309"
       d="m 579.80609,334.52814 c 2.29825,6.17593 3.46598,12.72139 3.70945,19.29154 0.0324,3.06172 -0.56276,6.05093 -1.14054,9.03807 -0.10439,0.73798 -10.54096,-0.73822 -10.43658,-1.47619 l 0,0 c 0.33048,-2.27524 0.75736,-4.56631 0.4635,-6.87231 -0.74842,-6.22688 -2.45472,-12.27352 -3.1453,-18.50817 -0.10415,-0.74596 10.44532,-2.2189 10.54947,-1.47294 z"
       inkscape:connector-curvature="0" />
    <path
       style="fill:#0000ff"
       id="path3311"
       d="m 712.46432,366.69318 c 1.18488,4.99919 1.74253,10.11809 2.0424,15.23823 0.40721,4.35108 1.30253,8.61817 2.10916,12.90634 0.10603,0.82756 -11.59746,2.32701 -11.70349,1.49945 l 0,0 c -0.54029,-4.61454 -1.24918,-9.21039 -1.50184,-13.85436 -0.31699,-5.29137 -1.54396,-10.47822 -1.58916,-15.78966 0,-0.75257 10.64293,-0.75257 10.64293,0 z"
       inkscape:connector-curvature="0" />
    <path
       style="fill:#0000ff"
       id="path3313"
       d="m 663.74425,554.38017 c 5.60794,5.05793 9.5396,11.80852 11.59995,19.06473 0.47957,1.68894 0.7265,3.43545 1.08975,5.15317 0.98029,6.93805 0.27075,13.80369 -2.43461,20.24398 -0.24939,0.73879 -10.69746,-2.78812 -10.44807,-3.52691 l 0,0 c 1.75436,-4.57361 1.49971,-9.76676 1.05154,-14.55331 -1.66055,-7.27476 -4.55644,-14.00544 -9.23907,-19.88107 -0.45966,-0.59259 7.92085,-7.09318 8.38051,-6.50059 z"
       inkscape:connector-curvature="0" />
    <path
       style="fill:#0000ff"
       id="path3315"
       d="m 581.23466,518.81386 c 2.2583,7.52315 4.30525,15.07285 7.14194,22.41435 1.55978,3.91829 3.26305,7.77057 5.68028,11.23531 0.40121,0.67965 -9.21047,6.35355 -9.61168,5.6739 l 0,0 c -3.10792,-4.07187 -5.585,-8.48259 -7.43185,-13.2789 -3.0559,-7.9355 -5.66523,-16.03375 -6.32815,-24.57173 -0.10416,-0.74596 10.44531,-2.21889 10.54946,-1.47293 z"
       inkscape:connector-curvature="0" />
    <path
       style="fill:#0000ff"
       id="path3317"
       d="m 699.92205,462.41061 c 3.71091,7.2543 6.78788,14.78167 9.54229,22.44263 0.54581,1.35928 1.09162,2.71856 1.63744,4.07784 0.26105,0.80572 -11.13352,4.49752 -11.39457,3.6918 l 0,0 c -0.55562,-1.45536 -1.11124,-2.91072 -1.66687,-4.36609 -2.75659,-7.68879 -6.45525,-15.0461 -8.40839,-22.99532 -0.20158,-0.72762 10.08851,-3.57848 10.2901,-2.85086 z"
       inkscape:connector-curvature="0" />
    <path
       style="fill:#0000ff"
       id="path3319"
       d="m 653.94647,665.51025 c 1.06027,8.49419 1.85378,16.99958 2.11293,25.5576 -0.0147,0.99897 -0.0294,1.99794 -0.044,2.99692 0.0346,0.79594 -11.22171,1.2858 -11.25634,0.48985 l 0,0 c -0.11489,-0.93475 -0.22977,-1.8695 -0.34465,-2.80425 -0.96177,-8.69091 -2.15133,-17.49945 -1.218,-26.24012 0,-0.76014 10.75008,-0.76014 10.75008,0 z"
       inkscape:connector-curvature="0" />
    <path
       style="fill:#0000ff"
       id="path3321"
       d="m 599.92205,646.69632 c 4.74531,9.23998 6.81933,19.31998 7.70875,29.57917 0.68544,6.29777 -0.0748,12.61377 0.0719,18.91198 0.0212,0.79891 -11.27707,1.09799 -11.29822,0.29909 l 0,0 c -0.23354,-6.09059 -0.19491,-12.1933 -1.07239,-18.24523 -0.47739,-4.70195 -0.43461,-5.37188 -1.37126,-10.07591 -1.18273,-5.93983 -3.16713,-11.67564 -4.32885,-17.61824 -0.20158,-0.72762 10.08851,-3.57848 10.2901,-2.85086 z"
       inkscape:connector-curvature="0" />
    <path
       style="fill:#0000ff"
       id="path3323"
       d="m 619.79768,769.07154 c 2.62359,6.0547 4.31759,12.50714 5.85546,18.91524 1.08191,4.23472 1.94563,8.52112 3.22739,12.70277 0.20176,0.74878 -10.38752,3.60214 -10.58928,2.85336 l 0,0 c -1.47034,-4.35214 -2.6808,-8.79217 -3.89349,-13.22246 -1.53888,-5.9784 -3.29877,-11.89901 -4.64144,-17.92549 -0.235,-0.71003 9.80635,-4.03345 10.04136,-3.32342 z"
       inkscape:connector-curvature="0" />
    <path
       style="fill:#0000ff"
       id="path3325"
       d="m 628.37752,888.81386 c 1.09117,2.3887 2.72815,9.14005 5.21083,10.2141 0.49777,0.58414 -7.76318,7.62364 -8.26095,7.0395 l 0,0 c -0.73404,-0.76775 -1.531,-1.47992 -2.20211,-2.30325 -3.11077,-3.81635 -4.50494,-8.72095 -5.29724,-13.47742 -0.10415,-0.74596 10.44532,-2.21889 10.54947,-1.47293 z"
       inkscape:connector-curvature="0" />
    <path
       style="fill:#0000ff"
       id="path3327"
       d="m 692.66323,883.09957 c 2.29591,7.72887 4.60391,15.4671 6.93022,23.19475 0.95362,2.63929 1.77787,5.31235 2.45649,8.03327 0.21294,0.73825 -10.2275,3.74965 -10.44044,3.0114 l 0,0 c -1.21668,-2.59789 -2.45174,-5.18984 -3.44714,-7.88418 -2.926,-8.04867 -5.24942,-16.32336 -6.04859,-24.88231 -0.10416,-0.74596 10.44531,-2.21889 10.54946,-1.47293 z"
       inkscape:connector-curvature="0" />
    <path
       style="fill:#0000ff"
       id="path3329"
       d="m 677.12356,791.80111 c 5.58825,7.34411 10.28437,15.37124 14.00625,23.8134 0.32051,0.75821 0.64102,1.51642 0.96153,2.27463 0.32632,0.71831 -9.8321,5.33314 -10.15842,4.61483 l 0,0 c -0.53942,-0.78772 -1.07885,-1.57544 -1.61827,-2.36316 -4.67287,-7.91609 -9.44499,-15.82102 -13.10721,-24.26984 -0.28778,-0.70118 9.62833,-4.77103 9.91612,-4.06986 z"
       inkscape:connector-curvature="0" />
    <path
       style="fill:#0000ff"
       id="path3331"
       d="m 704.08273,724.11794 c 3.83168,5.20987 7.10816,10.82979 10.17811,16.51701 0.2412,0.37544 0.48241,0.75088 0.72361,1.12631 0.3935,0.65308 -8.84244,6.21793 -9.23593,5.56485 l 0,0 c -0.47862,-0.58022 -0.95724,-1.16044 -1.43586,-1.74066 -3.70016,-5.32408 -7.16473,-10.86133 -9.77867,-16.80831 -0.32946,-0.6752 9.21928,-5.3344 9.54874,-4.6592 z"
       inkscape:connector-curvature="0" />
    <path
       style="fill:#0000ff"
       id="path3333"
       d="m 725.52038,667.38528 c 1.26468,5.7193 2.16846,11.49862 3.72816,17.15267 0.20392,0.75887 -10.52815,3.64276 -10.73207,2.88389 l 0,0 c -2.17021,-5.97103 -3.38078,-12.1989 -3.54556,-18.56362 -0.10415,-0.74596 10.44531,-2.2189 10.54947,-1.47294 z"
       inkscape:connector-curvature="0" />
    <path
       style="fill:#0000ff"
       id="path3335"
       d="m 655.5113,488.40365 c 3.54811,5.8734 6.53807,12.05812 9.01153,18.45437 0.27401,0.74393 -10.24677,4.61905 -10.52078,3.87512 l 0,0 c -2.95881,-5.7499 -5.88955,-11.56318 -8.03949,-17.67029 -0.32946,-0.67519 9.21928,-5.3344 9.54874,-4.6592 z"
       inkscape:connector-curvature="0" />
    <path
       style="fill:#0000ff"
       id="path3337"
       d="m 706.94053,563.35725 c 2.20838,4.37391 4.01111,8.90267 5.63101,13.5233 0.24481,0.72654 -10.03006,4.18854 -10.27486,3.462 l 0,0 c -2.07104,-4.42277 -4.05186,-8.97392 -5.3975,-13.66187 -0.235,-0.71003 9.80635,-4.03346 10.04135,-3.32343 z"
       inkscape:connector-curvature="0" />
    <path
       style="fill:#0000ff"
       id="path3339"
       d="m 665.51196,369.07154 c 2.65139,3.7976 3.90523,8.25635 5.28943,12.6096 0.23056,0.7437 -10.28689,4.00428 -10.51745,3.26059 l 0,0 c -1.74312,-4.12351 -3.20433,-8.36902 -4.81333,-12.54677 -0.235,-0.71003 9.80635,-4.03345 10.04135,-3.32342 z"
       inkscape:connector-curvature="0" />
    <path
       style="fill:#0000ff"
       id="path3341"
       d="m 641.23466,321.671 c 1.69773,6.46118 2.11767,13.17286 1.93442,19.82608 -0.0609,0.75787 -0.12177,1.51575 -0.18265,2.27363 -0.0135,0.77199 -10.93115,0.58087 -10.91764,-0.19112 l 0,0 c -0.0316,-0.64677 -0.0632,-1.29354 -0.0948,-1.94031 -0.3863,-6.16887 -0.91847,-12.32591 -1.28876,-18.49535 -0.10416,-0.74596 10.44531,-2.21889 10.54946,-1.47293 z"
       inkscape:connector-curvature="0" />
    <path
       style="fill:#0000ff"
       id="path3343"
       d="m 702.31568,298.66589 c 3.53898,3.54858 6.90696,8.15112 7.47158,13.31308 0.12165,1.11214 -0.0211,2.23745 -0.0316,3.35618 -0.26372,0.97483 -0.52743,1.94967 -0.79115,2.9245 -0.20175,0.73454 -10.58958,-2.11866 -10.38783,-2.85319 l 0,0 c 0.10669,-0.14622 0.21338,-0.29244 0.32007,-0.43866 0.62901,-2.98342 -3.51294,-7.38752 -4.96153,-9.80132 -0.45966,-0.5926 7.92085,-7.09319 8.38051,-6.50059 z"
       inkscape:connector-curvature="0" />
    <path
       style="fill:#0000ff"
       id="path3345"
       d="m 409.79768,277.64297 c 1.84639,3.54932 2.73014,7.34301 3.09278,11.28961 0.0754,0.78057 -10.9635,1.84709 -11.03891,1.06652 l 0,0 c -0.47354,-3.06314 -1.34932,-6.02736 -2.09523,-9.03271 -0.235,-0.71003 9.80635,-4.03345 10.04136,-3.32342 z"
       inkscape:connector-curvature="0" />
    <path
       style="fill:#0000ff"
       id="path3347"
       d="m 295.51196,274.78583 c 1.86908,4.32387 3.64007,9.11649 3.62098,13.91163 -0.004,0.92649 -0.19377,1.84282 -0.29066,2.76423 -0.26118,0.80146 -0.52237,1.60292 -0.78355,2.40437 -0.22056,0.71527 -10.33593,-2.40387 -10.11538,-3.11914 l 0,0 c 0.0507,-0.037 0.10135,-0.074 0.15202,-0.11105 0.18726,-4.25471 -1.9435,-8.38955 -2.62476,-12.52662 -0.235,-0.71003 9.80635,-4.03345 10.04135,-3.32342 z"
       inkscape:connector-curvature="0" />
    <path
       style="fill:#0000ff"
       id="path3349"
       d="m 198.17861,260.97889 c 0.66494,5.71644 -0.52484,11.44094 -1.56444,17.04396 -0.0828,0.76686 -10.92779,-0.40411 -10.84499,-1.17096 l 0,0 c 0.40198,-5.31358 1.259,-10.57138 1.7665,-15.873 0,-0.75256 10.64293,-0.75256 10.64293,0 z"
       inkscape:connector-curvature="0" />
    <path
       style="fill:#0000ff"
       id="path3351"
       d="m 564.20776,228.12489 c 2.32847,5.64968 3.7783,11.81543 3.09066,17.95984 -0.14222,1.27078 -0.46889,2.51407 -0.70333,3.77111 -0.35114,1.02607 -0.70229,2.05213 -1.05344,3.0782 -0.21077,0.75927 -10.94847,-2.22159 -10.73769,-2.98086 l 0,0 c 0.20264,-0.63189 0.40528,-1.26378 0.60792,-1.89567 1.16093,-5.75452 -0.33141,-11.43235 -1.49421,-17.08176 -0.20159,-0.72761 10.0885,-3.57848 10.29009,-2.85086 z"
       inkscape:connector-curvature="0" />
    <path
       style="fill:#0000ff"
       id="path3353"
       d="m 102.66323,887.38528 c 1.97796,7.60054 2.23489,15.49157 2.10009,23.30094 -0.25788,3.8082 0.0297,1.97505 -0.81661,5.50647 -0.12003,0.75433 -10.787822,-0.94321 -10.667788,-1.69753 l 0,0 c 0.126862,-1.91789 0.08249,-0.68719 -0.04206,-3.69428 -0.31584,-7.31707 -0.885087,-14.62231 -1.123095,-21.94266 -0.104152,-0.74596 10.445313,-2.2189 10.549463,-1.47294 z"
       inkscape:connector-curvature="0" />
    <path
       style="fill:#0000ff"
       id="path3355"
       d="m 48.675424,913.21538 c 3.944103,9.155 5.402776,19.0781 5.629418,28.97395 -0.314418,4.51484 -0.03975,2.42245 -0.728881,6.28894 -0.06878,0.77418 -11.017355,-0.19844 -10.94858,-0.97263 l 0,0 c 0.0019,-2.81918 0.03448,-1.22924 -0.157443,-4.76822 -0.851346,-9.1993 -2.732118,-18.23003 -4.448506,-27.29816 -0.157252,-0.75335 10.49674,-2.97723 10.653992,-2.22388 z"
       inkscape:connector-curvature="0" />
    <path
       style="fill:#0000ff"
       id="path3357"
       d="m 109.80609,953.09957 c 1.79773,5.99237 1.61337,12.25594 2.03748,18.41773 0.0839,0.77145 -10.8261,1.95744 -10.90996,1.18599 l 0,0 c -1.040372,-5.97499 -1.374926,-12.08132 -1.676986,-18.13079 -0.104152,-0.74596 10.445316,-2.21889 10.549466,-1.47293 z"
       inkscape:connector-curvature="0" />
    <path
       style="fill:#0000ff"
       id="path3359"
       d="m 158.3691,963.35725 c 2.88335,6.20999 4.96738,12.76321 7.07124,19.27068 0.97892,3.86301 0.6033,1.99391 1.17213,5.598 0.13824,0.76393 -10.66526,2.71906 -10.80351,1.95513 l 0,0 c -0.80386,-2.67983 -0.33311,-1.21495 -1.4504,-4.3822 -2.30428,-6.28097 -4.43561,-12.61372 -6.03081,-19.11818 -0.235,-0.71003 9.80635,-4.03346 10.04135,-3.32343 z"
       inkscape:connector-curvature="0" />
    <path
       style="fill:#0000ff"
       id="path3361"
       d="m 107.39113,915.94722 c 1.96532,-3.78467 5.25568,-7.05895 6.05254,-11.36201 -0.19167,-1.51102 -0.94672,-2.91409 -1.42669,-4.36164 -0.2034,-0.71588 9.92069,-3.59243 10.12409,-2.87654 l 0,0 c 1.00099,2.79538 2.29979,5.4826 2.04737,8.5592 -0.73757,5.61608 -3.17735,10.69192 -7.24857,14.7002 -0.32946,0.6752 -9.8782,-3.98401 -9.54874,-4.65921 z"
       inkscape:connector-curvature="0" />
    <path
       style="fill:#0000ff"
       id="path3363"
       d="m 114.67854,925.17404 c -0.70438,-6.78707 -0.69496,-13.61375 0.29062,-20.36384 0.36838,-2.33181 1.08143,-4.58135 1.66654,-6.86118 0.0921,-0.73258 10.45231,0.57059 10.36016,1.30316 l 0,0 c -0.17674,2.24426 -0.47511,4.4748 -0.71382,6.71308 -0.59739,6.40005 -0.36807,12.80946 -0.96058,19.20878 0,0.75257 -10.64292,0.75257 -10.64292,0 z"
       inkscape:connector-curvature="0" />
    <path
       style="fill:#0000ff"
       id="path3365"
       d="m 153.89289,750.97889 c 0.57491,5.46613 0.41988,10.97962 0.12883,16.45848 -0.0841,1.27268 -0.16887,2.54498 -0.2326,3.81882 0,0.7379 -10.43538,0.7379 -10.43538,0 l 0,0 c -0.0637,-1.27384 -0.14854,-2.54614 -0.2326,-3.81882 -0.29105,-5.47886 -0.44608,-10.99235 0.12882,-16.45848 0,-0.75256 10.64293,-0.75256 10.64293,0 z"
       inkscape:connector-curvature="0" />
    <path
       style="fill:#0000ff"
       id="path3367"
       d="m 35.321464,772.40747 c 0.574904,5.46612 0.419876,10.97961 0.128829,16.45847 -0.107326,1.57473 -0.218015,3.14821 -0.252351,4.72635 0,0.7351 -10.395884,0.7351 -10.395884,0 l 0,0 c -0.03434,-1.57814 -0.145025,-3.15162 -0.252351,-4.72635 -0.291047,-5.47886 -0.446075,-10.99235 0.128829,-16.45847 0,-0.75257 10.642928,-0.75257 10.642928,0 z"
       inkscape:connector-curvature="0" />
  </g>
</svg>
