<?xml version="1.0" encoding="UTF-8" standalone="no"?>
<!-- Created with Inkscape (http://www.inkscape.org/) -->

<svg
   xmlns:dc="http://purl.org/dc/elements/1.1/"
   xmlns:cc="http://creativecommons.org/ns#"
   xmlns:rdf="http://www.w3.org/1999/02/22-rdf-syntax-ns#"
   xmlns:svg="http://www.w3.org/2000/svg"
   xmlns="http://www.w3.org/2000/svg"
   xmlns:sodipodi="http://sodipodi.sourceforge.net/DTD/sodipodi-0.dtd"
   xmlns:inkscape="http://www.inkscape.org/namespaces/inkscape"
   width="744.09448819"
   height="1052.3622047"
   id="svg2"
   version="1.1"
   inkscape:version="0.48.4 r9939"
   sodipodi:docname="neutral.svg">
  <defs
     id="defs4" />
  <sodipodi:namedview
     id="base"
     pagecolor="#ffffff"
     bordercolor="#666666"
     borderopacity="1.0"
     inkscape:pageopacity="0.0"
     inkscape:pageshadow="2"
     inkscape:zoom="0.7"
     inkscape:cx="462.98586"
     inkscape:cy="716.63544"
     inkscape:document-units="px"
     inkscape:current-layer="layer1"
     showgrid="false"
     inkscape:window-width="1172"
     inkscape:window-height="867"
     inkscape:window-x="1003"
     inkscape:window-y="121"
     inkscape:window-maximized="0" />
  <metadata
     id="metadata7">
    <rdf:RDF>
      <cc:Work
         rdf:about="">
        <dc:format>image/svg+xml</dc:format>
        <dc:type
           rdf:resource="http://purl.org/dc/dcmitype/StillImage" />
        <dc:title></dc:title>
      </cc:Work>
    </rdf:RDF>
  </metadata>
  <g
     inkscape:label="Layer 1"
     inkscape:groupmode="layer"
     id="layer1">
    <path
       style="fill:#000000"
       id="path3150"
       d="m 343.36615,506.1432 c 0.54312,8.06855 1.35237,16.09503 2.08073,24.14463 0.59401,10.80484 1.66846,21.55746 2.28016,32.36191 0.34672,9.86181 -0.0565,19.72755 -0.519,29.57225 -0.4192,7.08529 -0.40146,14.18656 -0.30032,21.28382 0.0168,5.29218 -0.22718,10.58277 -0.19849,15.87385 -0.72069,5.65561 -1.4944,11.22218 -1.77497,16.9433 -0.42372,5.07433 -1.42152,10.05075 -1.79775,15.12913 0.0668,4.15388 0.47687,8.29861 0.62521,12.4555 0.11037,4.42489 -0.13077,8.84439 -0.27893,13.26298 -0.1019,3.43997 -0.0328,6.88261 0.009,10.32313 0.41229,2.79181 -0.51285,7.57679 0.14468,10.11065 1.30893,3.16219 1.692,6.63786 1.84731,10.13156 0.008,4.14726 -0.36934,8.2739 -0.52587,12.41358 0.0184,1.76879 -0.14082,3.56272 -0.0249,5.33037 0.0177,0.27044 0.25338,0.44868 0.34211,0.69715 0.21749,0.60906 0.4034,1.2344 0.60509,1.85159 1.41084,4.82645 1.36757,9.91998 1.06151,14.95664 -0.34501,3.57134 -0.53551,7.14926 -0.5213,10.74459 0.0409,2.43205 0.11048,4.86313 0.16129,7.29489 0.0155,1.01292 -11.64954,1.28251 -11.66507,0.26959 l 0,0 c -0.0389,-2.50719 -0.0932,-5.01398 -0.12105,-7.52141 -0.008,-3.87903 0.11444,-7.7517 0.40025,-11.61614 0.16647,-3.36572 0.30466,-6.78203 -0.42384,-10.07344 -1.03223,-4.20957 -1.96661,-7.91542 -1.51553,-12.40911 0.10445,-3.86846 0.37719,-7.71946 0.59883,-11.5792 0.0347,-2.92594 -0.72094,-5.40375 -1.59427,-8.12257 -0.62031,-4.10402 -0.41449,-8.24268 -0.42643,-12.40916 0.009,-3.54266 0.037,-7.08515 0.0497,-10.62778 -0.006,-4.2272 -0.0802,-8.45309 -0.14382,-12.67945 -0.0406,-4.43036 -0.12393,-8.85557 -0.26618,-13.2832 0.0132,-5.19396 0.58958,-10.30539 1.15962,-15.44349 0.28865,-5.49535 1.07641,-10.86167 2.21963,-16.1848 0.0537,-5.22738 -0.27315,-10.4487 -0.40591,-15.6716 -0.051,-7.30974 -0.13703,-14.62 -0.0626,-21.93001 0.11284,-9.40115 0.44474,-18.81459 -0.0647,-28.2079 -0.50419,-10.64065 -1.61869,-21.2106 -2.18535,-31.84664 -0.64477,-8.49414 -1.31343,-17.06715 -0.14668,-25.54521 0,-0.98797 11.3777,-0.98797 11.3777,0 z"
       inkscape:connector-curvature="0" />
    <path
       style="fill:#000000"
       id="path3162"
       d="m 346.58875,768.54328 c 1.85917,5.59703 1.96683,11.63383 2.3006,17.56411 0.53825,3.04908 0.95472,6.06021 1.01175,9.1881 -0.0635,3.94599 -0.23993,7.88681 -0.3089,11.83289 -0.0472,3.74756 0.018,7.49526 0.0554,11.24249 0.39766,5.25557 -2.07453,9.06577 -4.30728,13.13198 -3.51158,7.86244 -7.70647,14.99113 -12.58474,21.65857 -6.40497,8.03202 -14.01961,14.4725 -19.82426,23.21555 -3.18079,4.90505 -4.84201,10.73357 -6.31454,16.64923 -1.98803,7.75272 -5.63773,14.57281 -9.47161,21.11315 -2.65356,4.61609 -5.92716,8.50192 -9.19496,12.43136 0.0328,-0.0856 0.29597,-0.78301 0.30513,-0.73338 0.34702,1.87968 0.0162,5.04878 0.0179,7.03241 0.37093,3.89786 -1.36781,7.30898 -1.96746,10.99233 -1.01648,3.01582 -1.66431,6.15939 -2.68043,9.17019 -1.73473,4.14762 -4.81568,6.8036 -7.74067,9.58008 -3.05104,3.03668 -6.27481,5.83486 -9.61328,8.37647 -0.58164,0.73127 -9.0036,-9.37012 -8.42195,-10.10146 l 0,0 c 3.0351,-3.20606 6.57365,-5.59114 9.73363,-8.61008 1.12306,-0.94365 2.47751,-1.76193 3.54831,-2.78762 0.40185,-0.38493 0.7031,-0.91962 1.12338,-1.27363 0.35833,-0.30183 0.43002,-0.0452 0.57115,0.19176 0.81476,-2.31748 1.20266,-4.78718 2.13411,-7.05538 0.53204,-2.92895 1.68631,-5.66773 1.61239,-8.69831 0.12782,-4.33884 0.002,-8.88153 1.30235,-12.96202 2.34051,-4.82512 5.62195,-8.82395 8.23662,-13.4242 3.18989,-5.37939 6.69967,-10.54787 8.64506,-16.82531 1.70692,-7.29707 3.4738,-14.75346 6.95338,-21.11243 5.49809,-10.10605 12.57416,-17.70595 20.17163,-25.39046 5.06494,-5.65739 9.47908,-11.95281 13.27085,-18.96143 0.50758,-0.78127 0.95841,-1.62363 1.52273,-2.34382 1.0975,-1.40067 1.5024,0.21385 1.33819,-3.08978 -0.0531,-3.87954 -0.18466,-7.75728 -0.18334,-11.63777 0.0493,-3.94423 0.2213,-7.8812 0.61086,-11.79911 0.18138,-2.52872 -0.67301,-4.59643 -1.31924,-6.99814 -0.9918,-5.47364 -1.20033,-11.13754 -1.68953,-16.70649 -0.16467,-0.96879 10.99213,-3.82863 11.1568,-2.85985 z"
       inkscape:connector-curvature="0" />
    <path
       style="fill:#000000"
       id="path3164"
       d="m 355.25595,825.65689 c 5.4176,6.40388 8.63356,14.88394 12.38394,22.74217 3.34339,8.37983 7.11934,16.48325 10.63598,24.754 3.14698,5.42303 6.52616,10.5789 9.37033,16.25735 1.7231,3.90651 1.99946,8.3665 2.96599,12.57724 1.57765,4.05171 3.24436,8.11898 5.26131,11.88474 1.28693,2.54304 2.61512,5.0172 3.76574,7.66418 1.77791,3.3185 3.30749,6.87951 4.67233,10.48996 1.34554,2.84214 2.647,5.7534 3.63458,8.81042 0.65732,1.5833 1.60735,1.89341 2.80391,3.35045 0.40512,0.73228 0.81026,1.46456 1.21539,2.19683 0.38593,0.87271 -9.66443,7.5751 -10.05036,6.70239 l 0,0 c -0.0242,-0.0513 -0.0483,-0.10245 -0.0725,-0.15368 -1.95386,-2.20612 -3.58002,-4.72323 -4.65158,-7.72686 -0.98687,-2.83643 -3.0576,-5.10284 -4.01165,-7.97898 -1.24262,-3.32309 -2.43076,-6.68326 -3.76952,-9.94735 -1.20497,-2.29089 -2.78289,-4.17781 -4.01043,-6.4609 -2.74783,-4.98463 -5.21672,-10.24182 -6.32443,-16.17023 -0.36321,-2.77472 -0.5325,-5.79647 -1.97449,-8.08081 -3.53097,-5.64953 -7.36218,-11.03498 -10.45633,-17.07993 -3.70946,-8.08014 -7.74846,-15.93097 -11.19344,-24.19314 -3.10329,-6.99467 -5.86553,-14.21808 -9.21543,-21.0453 -0.49477,-0.78329 8.52584,-9.37584 9.02061,-8.59255 z"
       inkscape:connector-curvature="0" />
    <path
       style="fill:#000000"
       id="path3166"
       d="m 267.44534,965.7781 c -5.8223,0.87717 -11.71823,0.87433 -17.57777,0.92275 -5.88966,0.0396 -11.77477,-0.0501 -17.64617,-0.64197 -2.35339,-0.36725 -4.70859,-0.36652 -7.06732,-0.12769 -3.52652,0.30637 -7.06143,0.14003 -10.59197,0.13416 -0.38938,0.075 -0.78207,0.12756 -1.16817,0.22491 -0.85463,0.21549 -2.04526,0.65879 -2.87303,0.91892 -1.16113,0.36501 -2.22519,0.70021 -2.18253,0.51724 0.0814,-0.34918 0.43948,-0.48624 0.65922,-0.72936 -0.0606,0.0727 -0.12184,0.14452 -0.18168,0.21806 -0.0603,0.0742 0.23366,-0.11107 0.25605,-0.01 0.062,0.28006 0.0751,0.57311 0.1103,0.86009 0.13774,1.12121 0.27035,2.24341 0.40722,3.36482 0.86302,3.7735 0.19085,7.85482 0.74396,11.63754 0.50691,1.27826 0.23732,1.42198 1.02245,1.83211 0.0912,0.0475 0.0345,-0.3846 0.12382,-0.3319 0.37204,0.2197 0.63647,0.64585 0.9547,0.96872 2.4333,0.13297 4.66758,1.58416 6.88164,2.97989 2.27516,1.17589 4.2421,3.01188 6.3746,4.50978 0.76412,0.0521 1.33885,-0.64032 2.1108,-0.70641 3.48663,-0.29826 7.49559,0.27907 10.94848,0.64025 5.78009,0.71544 11.52216,1.87082 17.31807,2.40039 3.21404,0.29365 4.33969,-0.11542 2.71356,0.37754 2.4594,0.49297 4.80591,0.23653 7.23241,-0.22478 0.33864,0.34859 1.51747,-0.22188 1.92715,-0.18092 0.0942,0.009 -0.13689,0.16001 -0.20532,0.24009 -0.15157,0.17736 -0.46264,0.78891 -0.45466,0.53201 0.0122,-0.39476 0.31352,-0.68998 0.47028,-1.03494 0.63676,-2.82358 1.31435,-5.66192 2.03336,-8.47013 1.03892,-2.94302 1.23139,-5.97925 1.11939,-9.13512 -0.0365,-0.5795 -0.0701,-1.15926 -0.10956,-1.7385 -0.0861,-1.2623 -0.11581,-2.53304 -0.26835,-3.78583 -0.0184,-0.15078 -0.15499,-0.56928 -0.15325,-0.41685 0.0165,1.44321 0.52095,1.07036 -0.0763,1.37923 0.56636,0.29991 -0.63515,0.90131 -0.35068,1.02518 0.65495,0.28527 2.76546,0.26363 2.07098,0.29411 -3.45105,0.15137 -3.76389,0.007 -6.29587,-0.49495 -0.76854,-0.3406 3.15418,-13.6877 3.92272,-13.34703 l 0,0 c 1.70788,0.0925 1.43956,0.0561 -0.8078,0.0697 3.87559,0.2333 6.43404,-0.22755 9.57756,2.61548 3.77989,4.33724 3.96703,8.07769 4.20854,13.97079 0.11412,4.67474 -0.16828,9.33206 -1.75317,13.66046 -1.23513,3.24735 -1.34649,7.00686 -2.65425,10.23146 -1.50769,3.3146 -2.98269,5.9576 -6.01751,7.2043 -2.12811,0.8743 -1.37327,0.8562 -2.84014,0.6092 -2.49618,-0.427 -4.81689,1.9117 -7.34298,1.7603 -9.37064,0.3874 -18.71662,0.097 -27.94816,-2.1996 -5.27178,-1.1555 -10.97726,-1.475 -15.74826,-4.6721 -1.84384,-1.4184 -3.83781,-2.5516 -5.84844,-3.5808 -2.82781,-1.56489 -5.96855,-2.40222 -8.36376,-4.98446 -2.64025,-2.51865 -4.37283,-5.78757 -5.15102,-9.79284 -0.63171,-4.07743 -0.52519,-8.25867 -1.09075,-12.36334 -0.42088,-5.16045 -0.62028,-10.4635 2.29174,-14.68359 0.72054,-0.82975 1.3628,-1.7757 2.1616,-2.48925 2.08777,-1.86493 5.61904,-1.55487 7.88595,-3.12949 3.96407,-1.05848 8.01777,-0.73571 12.05749,-0.51392 2.3411,0.2274 4.67928,0.25571 7.01393,-0.12769 5.78102,-0.6086 11.57757,-0.67458 17.37773,-0.64193 5.98889,0.0493 12.00958,0.0639 17.96362,0.92274 0.77925,-0.2457 3.60877,13.2873 2.82953,13.53306 z"
       inkscape:connector-curvature="0" />
    <path
       style="fill:#000000"
       id="path3168"
       d="m 411.98721,951.08845 c -3.59001,5.11858 -8.31125,8.76443 -13.01333,12.15398 0.43153,-1.0383 -2.86255,2.81553 -2.46111,1.75922 0.38388,-1.01001 0.51786,-0.58155 0.80769,0.21773 1.23686,3.39199 1.38951,7.1364 2.30776,10.63215 0.82229,0.85771 1.15296,2.40092 2.15393,3.05238 0.13137,0.0856 0.16008,-0.40208 0.30866,-0.39535 0.4189,0.0191 0.79968,0.30921 1.19951,0.46381 8.32699,3.19683 16.69872,6.05853 25.28871,7.96675 5.56941,1.4814 11.20241,2.6003 16.84639,3.55629 1.07682,0.18238 2.18602,0.14089 3.23769,0.47859 0.33706,0.10824 -1.05794,-0.19537 -1.02813,0.23092 0.0306,0.43677 0.70558,0.13435 1.05837,0.20156 -0.2159,0.24906 -0.43181,0.49811 -0.64771,0.74724 -0.14555,0.24813 -0.25943,0.52957 -0.43665,0.74446 -0.042,0.0508 -0.0213,-0.15085 0.002,-0.21746 0.30546,-0.87361 0.54423,-1.79972 0.97857,-2.58672 1.74218,-3.15699 2.51023,-3.46422 4.9606,-5.69966 5.48202,-4.1449 11.62639,-6.54516 17.7421,-8.8296 2.13531,-0.65166 2.85965,-0.62402 4.42251,-2.24895 -0.42304,0.55827 -0.27881,-0.57363 -0.3697,-0.8306 -0.0292,-0.0826 -0.16818,0.064 -0.22008,0 -0.26802,-0.3288 -0.94492,-2.096 -0.99005,-2.20569 -1.38954,-2.07911 -2.34461,-3.66776 -4.13589,-5.25615 -5.75107,-3.27472 -11.74907,-5.98624 -17.75182,-8.49836 -4.49674,-1.96175 -9.15137,-3.01372 -13.83384,-3.986 -0.61882,-0.0778 -3.62822,-0.42579 -4.04218,-0.0381 -0.35492,0.33236 1.77193,-0.088 1.33855,0.0431 -1.0757,0.32539 -2.21493,0.0722 -3.32225,0.1143 -4.56522,0.87068 -8.51861,-2.22916 -12.93984,-2.45903 -2.72578,0.14851 0.0276,-0.0392 0.559,0.13871 0.42406,0.14201 -0.87907,0.0752 -1.31806,0.048 -0.77453,-0.0479 -0.95491,0.13026 -1.81992,0.62687 -3.03141,1.9701 -6.4267,2.6482 -9.82642,2.49229 -0.77902,0.34642 -4.76851,-13.18275 -3.98948,-13.52917 l 0,0 c 2.35717,-0.57957 4.62423,-0.34875 7.02089,-0.32848 1.68023,-1.04777 3.31373,-2.34701 5.16093,-2.92691 2.62403,-0.82378 5.53962,-0.13103 8.20878,0.0535 1.74066,0.35546 3.42313,0.8283 5.13673,1.3378 0.46182,0.13732 0.92216,0.28466 1.38887,0.39433 0.3808,0.0895 1.52645,0.082 1.15138,0.2026 -0.65441,0.21037 -1.35225,0.0529 -2.02837,0.0793 4.45515,-0.25381 8.92217,-0.42949 13.35699,0.27183 5.64883,0.51665 11.27227,1.0765 16.677,3.40648 6.98891,3.22176 14.06246,6.88524 19.64047,13.15214 2.33989,2.84679 4.43675,5.99006 6.20783,9.40264 2.13033,5.6707 2.8638,10.43665 0.12511,16.08235 -2.00757,2.9768 -4.44202,5.78823 -7.43093,7.18053 -5.36232,2.89672 -10.84506,5.41762 -16.37767,7.77388 -0.53839,0.17453 -1.07678,0.34905 -1.61517,0.52358 -0.21353,-0.0675 -0.42518,-0.26047 -0.64058,-0.20256 -0.81447,0.21885 -1.25584,2.66719 -1.33182,2.83828 -1.45849,3.28445 -1.5047,2.80315 -4.00021,5.26755 -4.05686,2.027 -1.88863,1.2585 -8.57808,1.8421 -7.72414,0.6739 -15.37701,-0.8414 -22.88442,-2.9896 -2.28616,-0.7837 -4.60075,-1.4516 -6.85847,-2.3511 -6.61087,-2.63365 -12.90086,-6.51274 -19.0731,-10.38458 -3.50698,-2.61212 -6.17522,-6.02733 -7.71567,-10.75391 -1.17701,-3.83365 -1.7137,-7.85356 -2.69981,-11.7657 -1.08184,-7.22261 0.28017,-11.81765 5.11382,-16.20463 3.98746,-3.11842 7.81455,-6.58748 11.95936,-9.38146 0.49477,-0.78329 9.51538,7.80925 9.02062,8.59255 z"
       inkscape:connector-curvature="0" />
    <path
       style="fill:#000000"
       id="path3636"
       d="m 349.76405,566.00795 c 8.58589,7.0783 16.15289,15.2865 24.29249,22.86704 7.83079,7.6814 16.07505,14.92015 23.91434,22.59276 6.29646,7.02015 13.61885,12.89216 21.1008,18.57704 7.66502,5.02088 14.52937,10.98366 21.1238,17.30133 2.79727,2.03462 4.40384,5.5602 7.24117,7.49937 1.88846,1.63768 3.86838,3.08444 5.50402,5.02695 2.37532,1.78836 4.3683,3.91984 6.41348,6.05876 2.91671,3.73971 4.97867,5.46651 1.72327,10.73307 -0.4696,0.75971 -1.49471,0.97805 -2.24206,1.46707 -5.03505,1.81846 -10.50434,1.51687 -15.75409,1.02467 -4.03582,-0.29251 -8.23788,-0.38724 -12.25374,0.19115 -9.15712,0.39087 -18.32075,0.28881 -27.4824,0.2176 -6.43189,0.15683 -12.83813,-0.47747 -19.2639,-0.51251 -5.27803,0.18712 -10.53731,0.35758 -15.83277,0.37096 -5.39655,-0.098 -10.81443,-0.13382 -16.19513,-0.58524 -0.44678,-0.059 -6.98805,-0.0483 -4.01376,0.16912 -5.65586,0.22498 -11.31761,0.29915 -16.97784,0.33141 -7.3583,0.061 -14.71128,0.0395 -22.06696,-0.14447 -5.18555,-0.30223 -1.50963,-0.27723 -6.77293,-0.27081 -4.80598,0.17653 -9.61551,0.20815 -14.4239,0.12471 1.35339,-0.26543 -4.34802,0.15704 -3.28138,-0.0869 4.97175,-1.13709 1.41572,0.11835 0.54087,0.55186 -2.15446,0.69222 -4.13601,1.85268 -6.37815,2.29038 -2.65028,0.97638 -0.88711,-0.36611 0.64343,-4.09727 0.0889,0.70967 -9.94738,1.96641 -10.03625,1.25674 l 0,0 c 1.31896,-3.76192 0.81179,-5.03412 3.9889,-6.17024 0.52644,-0.22161 1.03028,-0.5073 1.5793,-0.66483 0.48459,-0.13904 1.04064,0.18304 1.50423,-0.15729 0.5205,-0.17644 2.11784,-1.00128 2.44187,-1.16293 0.14892,-0.0516 0.31258,0.0403 0.46887,0.0605 1.15219,-0.34795 2.08829,-1.33441 3.24739,-1.60638 2.66059,-0.62429 5.28747,-0.68943 7.98057,-0.72798 3.77526,-0.0649 4.93066,-0.009 9.08853,0.12469 4.06324,0.005 8.12601,-0.0321 12.18347,-0.27091 5.48052,-0.13521 10.96061,-0.25396 16.44333,-0.14384 5.71659,0.0324 11.43455,0.10756 17.14692,0.3294 3.099,0.0453 6.19528,0.24014 9.29235,0.17341 0.23028,-0.0182 2.32884,-0.18279 2.34562,-0.19099 0.25897,-0.1266 -1.13851,-0.088 -0.85414,-0.13518 3.01293,-0.49926 6.17962,-0.0116 9.20476,-0.26346 7.15696,0.008 14.31119,0.20617 21.46563,0.35921 4.52621,0.002 9.04899,-0.23248 13.56828,-0.42869 9.16653,-0.10035 18.33386,-0.32233 27.50039,-0.0675 6.15241,0.10454 12.28189,0.32208 18.41136,0.8423 3.74372,0.0928 3.01067,0.0563 7.20813,0.21627 -0.13692,2.09577 -0.004,0.47241 -0.79881,4.82074 -0.0244,0.36874 0.48332,0.6661 0.41292,1.02888 -0.0471,0.24263 -0.33931,-0.35945 -0.50773,-0.54034 -1.1717,-1.25847 -0.86429,-0.92554 -1.86442,-2.03366 -2.10417,-2.20064 -4.27496,-4.32568 -6.41915,-6.48695 -1.49249,-1.4508 -3.20057,-2.62067 -4.77516,-3.97803 -2.62455,-2.42584 -5.07656,-5.03934 -7.99145,-7.14322 -6.90661,-5.71383 -14.26703,-10.80737 -21.43826,-16.18005 -7.54324,-6.09693 -14.69229,-12.58832 -21.49129,-19.50522 -8.10932,-7.42711 -16.57459,-14.45134 -24.56991,-22.00395 -8.09502,-7.67193 -15.76683,-15.78875 -22.79516,-24.45511 -0.46623,-0.60106 8.03402,-7.19453 8.50025,-6.59347 z"
       inkscape:connector-curvature="0" />
    <path
       style="fill:#000000"
       id="path3638"
       d="m 275.95796,680.96639 c -1.928,7.43858 -4.83323,12.78487 -10.51159,17.99288 -4.15245,2.7987 -6.95431,3.58358 -12.05914,2.52238 -0.0484,-0.0101 -2.51874,-1.28608 -2.85495,-1.45938 -0.2911,-0.0935 -0.60436,-0.13511 -0.87329,-0.28058 -0.47286,-0.31586 -1.85434,-1.26744 -2.49243,-1.61004 -1.56834,-0.84204 -3.25327,-1.47518 -4.9085,-2.1171 -1.62293,-0.557 -3.29869,-0.99616 -5.02766,-0.9812 -0.40624,0.004 -1.60711,0.006 -1.21391,0.10858 0.47976,0.12461 3.10004,-0.14626 0.54897,0.0879 -2.60725,0.62641 -4.62383,0.4504 -7.38693,-0.075 -1.06901,-0.20326 -1.932,-0.79528 -3.04644,-0.93699 -0.66179,-0.33621 4.09287,-9.69533 4.75466,-9.35912 l 0,0 c 0.46087,0.16095 0.92389,0.31589 1.38262,0.48284 0.44008,0.16016 1.80447,0.45195 1.33653,0.43316 -3.89864,-0.15659 -3.16364,0.20182 -1.25593,-0.28367 5.51759,-1.37592 11.0472,-0.80578 16.21034,1.50643 2.8257,1.44242 5.38119,3.30303 8.25935,4.62943 1.87222,0.91032 1.35053,0.0599 -1.8324,0.3813 -0.10926,0.011 -0.0374,0.31367 0.0721,0.32145 0.2972,0.0211 0.57302,-0.16393 0.85657,-0.25543 0.34199,-0.11036 0.67977,-0.23334 1.01965,-0.35002 4.35427,-3.77737 6.39436,-9.07217 8.98102,-14.08124 0.235,-0.71003 10.27635,2.61339 10.04135,3.32342 z"
       inkscape:connector-curvature="0" />
    <path
       style="fill:#000000"
       id="path3640"
       d="m 328.92197,585.16648 c -4.52282,6.704 -10.45175,12.28442 -16.41534,17.68146 -6.28,5.12445 -13.16052,9.42769 -19.58086,14.36261 -1.81574,1.82962 -4.51439,2.9075 -6.02316,5.0465 -0.85974,1.21886 -1.37496,2.27472 -2.09473,3.60137 -2.64321,4.95345 -5.95142,9.49822 -8.92693,14.24738 -3.03388,4.61783 -6.78562,8.64066 -10.67849,12.52842 -2.67956,2.8122 -5.74794,5.20729 -8.62441,7.80897 -2.64511,2.5252 -5.34092,5.02616 -7.52781,7.9685 -1.30614,2.01583 -2.85789,3.89624 -3.72005,6.15078 -0.8019,2.69968 -2.38647,5.08446 -3.81287,7.48745 -1.33365,2.12923 -1.87813,4.59831 -2.68941,6.93791 -1.54559,-6.71982 0.6868,-2.18112 -8.91729,-3.87926 -0.34655,-0.0613 0.18459,-0.67944 0.2622,-1.0227 0.16821,-0.744 0.30227,-1.49554 0.47513,-2.23848 1.56824,-6.74014 0.22755,-0.29217 1.69026,-7.68332 2.14553,-9.90072 3.16238,-19.96208 4.16843,-30.02305 0.63675,-5.72522 0.95452,-11.58223 2.35459,-17.19625 0.59114,-2.37034 1.35752,-4.1955 2.2171,-6.44033 0.36435,-0.91965 0.69007,-1.85556 1.09306,-2.75895 0.0179,-0.0402 2.2426,-4.49474 2.40068,-4.86114 0.87377,-2.02522 1.50342,-4.20529 2.23549,-6.28415 1.19321,-4.49546 2.95313,-8.7835 4.76524,-13.05176 1.94656,-4.18988 4.44387,-8.1288 7.0657,-11.92792 1.84185,-3.06913 3.20731,-6.38925 4.58624,-9.68348 1.69631,-4.63494 4.09684,-8.96878 6.46402,-13.28558 1.61301,-3.1803 3.54242,-6.17698 5.36538,-9.23591 0.89245,-1.34931 1.40913,-2.88864 1.94025,-4.40155 0.76802,-2.75528 1.8565,-5.40382 3.15087,-7.95248 1.26384,-1.88535 1.86726,-4.05943 2.54702,-6.19331 0.61543,-3.47601 1.71341,-6.84252 2.39646,-10.30241 0.80648,-2.27949 1.51483,-4.62785 2.5789,-6.80465 0.37889,-1.98037 0.84364,-3.95619 1.36441,-5.92679 0.38676,-2.99349 0.98709,-5.93242 2.0485,-8.76112 0.46585,-0.97368 0.97971,-1.91227 1.31153,-2.93972 0.18805,-0.71854 10.34979,1.94086 10.16174,2.6594 l 0,0 c -0.39081,1.25577 -0.7736,2.50709 -1.4325,3.65588 -1.19377,2.32617 -1.15355,5.18335 -1.79832,7.67193 -0.68711,2.5638 -1.14678,5.17404 -2.08288,7.65386 -0.117,0.21563 -0.36978,0.35151 -0.4477,0.58412 -0.40576,1.21139 -0.64768,2.49319 -1.0879,3.69777 -0.58425,3.99261 -1.67876,7.8952 -2.76539,11.77259 -0.98703,2.55341 -1.78106,5.17589 -3.21072,7.5365 -1.29949,1.81722 -1.7888,5.0557 -2.81506,7.06014 -0.95408,1.77788 -1.47875,3.65429 -2.34734,5.46116 -1.22098,2.26135 1.04515,-1.9851 -1.13791,2.46936 -1.14322,2.33272 -2.79629,4.40665 -3.68757,6.87584 -2.2604,3.9756 -4.36496,8.05828 -6.23527,12.22878 -1.60646,3.90433 -3.31197,7.79127 -5.37404,11.47776 -2.2938,3.26214 -4.36413,6.73128 -6.21688,10.25325 -1.75977,4.10703 -3.41088,8.21867 -4.53861,12.56259 -0.87022,2.36503 -1.53466,4.81794 -2.46676,7.15797 -1.13864,2.85854 -0.91835,1.75647 -2.0959,4.36429 -0.35535,0.78698 -0.65057,1.59976 -0.97586,2.39965 -2.23322,6.92932 -2.81208,14.13598 -3.17992,21.38573 -0.85046,10.55392 -1.87859,21.12306 -4.57976,31.39851 -1.05823,3.97442 -2.09879,8.03319 -3.93002,11.74683 -0.38516,0.78109 -0.53764,1.97455 -1.37226,2.22327 -2.90254,0.86497 -6.144,1.75644 -9.04328,0.8806 -1.33022,-0.40185 -0.8191,-2.65575 -1.22865,-3.98362 0.34107,-3.5985 1.83894,-7.01596 3.53571,-10.1688 1.27489,-1.8441 2.69518,-3.68097 3.319,-5.84819 1.1683,-2.88003 2.45388,-5.68862 4.2982,-8.21987 2.44281,-3.61518 5.38214,-6.75247 8.6381,-9.66083 2.62873,-2.37007 5.42932,-4.54072 7.98519,-6.98837 3.09375,-3.89615 6.70824,-7.37552 9.60197,-11.44613 2.94554,-4.64682 6.11943,-9.14902 8.87708,-13.91456 2.83609,-4.5921 5.52198,-8.20217 9.80966,-11.5619 6.01314,-5.20928 12.4457,-9.84686 18.81134,-14.61644 6.03975,-5.07616 11.65719,-10.59313 17.16189,-16.2367 0.45966,-0.5926 8.84017,5.90799 8.38051,6.50059 z"
       inkscape:connector-curvature="0" />
    <path
       style="fill:#000000"
       id="path3648"
       d="m 257.76139,685.7018 c -6.97795,-0.18952 -13.92968,-0.89353 -20.90212,-1.16962 2.13196,-0.30802 -2.04855,-0.0535 -2.12913,-0.21125 -0.14769,-0.28917 0.64296,-0.27306 0.79833,-0.55818 0.77647,-1.42492 1.71613,-2.85802 1.93911,-4.46537 0.13379,-0.96442 -0.62388,-1.84466 -0.93582,-2.76699 0.17816,-0.0755 1.71126,-0.72139 1.69928,-0.73779 -0.29764,-0.40743 -1.46335,0.27869 -1.49692,-0.22475 -0.036,-0.53995 0.9746,-0.47598 1.43078,-0.76707 2.33474,-1.4898 2.34013,-1.66757 4.42774,-3.58127 3.97952,-4.33408 7.65378,-8.92316 12.67097,-12.09122 7.63003,-3.12141 10.47125,0.27948 13.51944,6.26609 0.98376,1.94806 2.42122,3.41414 3.8609,4.96156 3.03664,4.05425 2.1326,9.2708 -2.61382,11.60104 -0.80487,0.39515 -1.72447,0.49199 -2.58671,0.73798 -0.7118,0.2605 -4.39578,-9.80591 -3.68397,-10.06641 l 0,0 c 0.22941,0.11608 0.5848,0.11285 0.68823,0.34823 0.21584,0.49115 -1.1073,3.59144 -0.0869,3.74967 -2.21871,-2.07287 -3.94775,-4.54017 -5.34216,-7.232 -0.27021,-0.52488 -0.46594,-1.08857 -0.76738,-1.59616 -0.0771,-0.12985 -0.43367,-0.3933 -0.28944,-0.34855 1.10994,0.34442 3.58191,2.17455 4.05422,-0.16427 -3.11435,1.11134 -7.74155,9.17812 -10.57288,11.32409 -6.0629,5.42255 -13.05116,10.20105 -21.34107,6.03958 -0.89815,-1.23585 -2.53596,-2.18805 -2.69444,-3.70755 -0.83169,-7.97415 7.49241,-7.28541 12.38958,-7.42102 7.3343,-0.0666 14.71433,0.23861 21.85956,2.05356 0.70906,0.27545 -3.18631,10.30312 -3.89537,10.02767 z"
       inkscape:connector-curvature="0" />
    <path
       style="fill:#000000"
       id="path3654"
       d="m 319.64946,580.98646 c 3.76248,-4.36865 7.48612,-8.80003 11.69769,-12.74764 1.68656,-1.30812 2.92001,-2.96638 4.06021,-4.73922 1.08144,-1.52355 0.60757,-0.91124 1.37687,-1.87072 0.38224,-0.62661 9.24393,4.77911 8.86169,5.40572 l 0,0 c -0.66416,0.89803 -0.27728,0.85326 -0.79828,0.85318 -1.36754,2.53886 -2.96223,4.92924 -4.84411,7.12753 -3.96302,4.19133 -7.23951,9.05565 -11.97356,12.47174 -0.45966,0.59259 -8.84017,-5.908 -8.38051,-6.50059 z"
       inkscape:connector-curvature="0" />
    <path
       style="fill:#000000"
       id="path3662"
       d="m 287.36699,498.28848 c -5.4017,-6.46881 -10.93138,-12.81492 -16.61858,-19.03696 -0.93688,-0.96477 -1.90165,-1.90322 -2.81064,-2.8943 -2.18495,-2.38229 -2.04054,-2.43318 -3.90663,-4.71703 -0.37292,-0.4564 -1.28641,-1.38116 -1.55232,-1.96356 -0.0984,-0.21549 0.31751,0.35165 0.47626,0.52748 1.84613,0.19771 3.68458,0.48969 5.53837,0.59312 0.15626,0.009 0.51257,-0.35887 0.38935,-0.26238 -1.95459,1.53077 -4.03842,2.26346 -6.42144,2.86624 -3.13784,0.6815 -6.35171,0.34166 -9.26849,-0.95369 -0.0926,-0.0412 -2.32374,-1.17393 -2.67138,-1.23307 -0.098,-0.0167 0.0231,0.19743 0.0347,0.29614 0.99454,0.0399 2.00094,0.27777 2.98363,0.11957 0.4999,-0.0805 0.8431,-0.56326 1.28687,-0.80706 0.10833,-0.0595 -0.15393,0.21019 -0.16203,0.33353 -0.0623,0.94985 0.0239,0.26195 -0.47906,1.90262 -0.82606,2.1306 -0.75571,4.33673 -0.6104,6.57073 0.48393,1.47837 -0.55645,4.62358 1.06248,5.54032 0.22813,0.31736 0.41463,0.66925 0.6844,0.95207 0.11962,0.1254 0.30543,0.16382 0.45815,0.24573 0.29054,0.30453 0.61134,0.58282 0.87162,0.91358 0.83388,1.05971 1.6506,2.26561 2.36799,3.41065 0.42913,0.15298 1.10991,1.63295 1.3216,1.32975 0.0824,-0.11798 -0.15756,-0.44989 -0.0149,-0.43141 0.58314,0.0755 1.04099,0.57325 1.61039,0.71998 2.49076,1.197 4.00333,3.4492 5.92466,5.28479 0.0717,-0.0496 0.13709,-0.18775 0.21505,-0.14877 1.14688,0.57349 2.58655,2.37592 3.80377,2.31996 0.78276,0.47306 1.57489,1.24243 2.564,1.18867 0.20186,-0.011 0.40111,-0.1405 0.5986,-0.0973 0.91072,0.19912 1.75058,0.64213 2.633,0.94278 2.27525,0.0118 4.10561,1.55785 6.34516,1.73657 -0.37779,-0.13798 2.43392,0.0854 1.85325,-0.12975 -0.45239,-0.16766 -1.17266,0.32665 -1.44562,-0.0712 -0.25632,-0.37356 0.90558,-0.0316 1.35792,-0.0567 0.66585,-0.0369 2.37449,-0.16718 3.02299,-0.21539 0.28338,-0.0124 4.18923,-0.25416 4.20716,-0.22088 0.0898,0.16666 -0.29741,0.23683 -0.42517,0.37651 -0.22581,0.24688 -0.42149,0.5197 -0.63223,0.77955 -0.0822,0.0501 -0.18938,0.22769 -0.24647,0.15024 -0.42492,-0.57645 -0.26695,-1.41216 -0.4991,-2.08962 -0.32407,-0.94566 -1.11296,-1.98729 -1.56176,-2.87576 -0.12562,-0.10866 -0.26569,-0.20258 -0.37687,-0.32597 -0.2217,-0.24605 -0.3642,-0.5652 -0.61792,-0.77808 -0.30339,-0.25456 0.13256,1.05428 -0.10835,1.09877 -0.42362,0.0782 -0.85179,-0.12939 -1.27769,-0.19409 -0.38383,-0.0469 -0.76766,-0.0939 -1.15149,-0.14083 -0.69668,-0.25506 2.9104,-10.10755 3.60708,-9.85249 l 0,0 c 0.36284,0.042 0.72567,0.0841 1.08851,0.12609 3.91893,0.22184 6.62552,2.68966 8.61019,5.87807 2.13873,3.9528 3.54662,7.94248 2.3927,12.48032 -0.48316,0.89777 -0.82352,1.88858 -1.44949,2.69332 -1.9775,2.54226 -5.30426,2.99648 -8.26967,3.04994 -4.19319,0.30764 -8.49482,0.88627 -12.62306,-0.19717 -2.33236,-0.74177 -4.59475,-1.55201 -6.98402,-2.09636 -2.29329,-0.71367 -4.62579,-1.24889 -6.66092,-2.61838 -2.24077,-1.34884 -4.46677,-2.7948 -6.40999,-4.55255 -0.95855,-1.09616 -1.93585,-2.27011 -3.3498,-2.78612 -2.52578,-1.31823 -4.7252,-2.91237 -6.28068,-5.36199 -1.42303,-1.92099 -3.20297,-3.5237 -4.48176,-5.54934 -1.68686,-3.15085 -2.36976,-6.3559 -2.35973,-9.93237 -0.15842,-3.29216 -0.0974,-6.59577 1.00744,-9.74553 0.94843,-2.90399 2.25346,-7.41273 5.74043,-8.3987 1.51923,-0.42958 3.15604,-0.099 4.73406,-0.14853 3.20897,0.97462 0.79122,0.16365 3.21181,1.12815 0.50922,0.20291 2.1297,0.37863 1.58485,0.43879 -0.71789,0.0793 -1.44909,-0.0213 -2.16565,0.0693 -0.43781,0.0553 0.88224,0.0248 1.32336,0.0372 0.879,-0.0142 1.88328,0.0518 2.7496,-0.16228 4.42694,-1.09375 -0.47651,-3.48927 8.39571,-0.93814 3.83052,3.00928 7.48979,6.20426 10.87529,9.73319 6.02393,6.21333 11.67446,12.86532 15.97608,20.41244 0.40571,0.63746 -8.60946,6.37506 -9.01517,5.73759 z"
       inkscape:connector-curvature="0" />
    <path
       style="fill:#000000"
       id="path3672"
       d="m 271.67684,67.375796 c 3.38343,-6.51174 7.32045,-12.762095 11.58524,-18.730937 4.71291,-6.636394 9.30908,-11.224429 16.33192,-15.36508 5.23319,-2.475041 10.64681,-4.573543 16.0424,-6.672228 5.65958,-2.6516 11.78709,-3.748856 17.94622,-4.468486 8.60101,-0.786005 17.23317,-0.118633 25.82291,0.450462 6.55633,0.382868 12.2772,3.282961 17.55492,6.968287 2.9406,2.34219 4.09229,5.598966 5.58845,8.876302 3.70379,3.975158 7.18508,8.114919 9.99728,12.771109 3.87712,6.5194 4.37416,11.639914 4.57846,18.999716 -0.10527,5.344987 0.18868,10.706939 -0.4102,16.02444 -1.106,7.483238 -4.72636,14.119049 -8.35336,20.635829 -3.17671,6.13765 -7.11125,11.73043 -12.02982,16.57976 -2.61261,2.70205 -6.11535,4.04043 -9.3607,5.77023 -2.80498,1.42962 -5.44848,3.11542 -8.08243,4.83247 -3.04109,2.03149 -6.57417,3.04855 -9.97329,4.2951 -3.64271,1.3999 -7.44397,2.26751 -11.07102,3.70265 -2.25551,1.08855 -4.52377,2.49065 -6.0254,4.53291 -0.83028,1.52284 -1.60241,2.8218 -1.45848,4.56401 0.3335,3.45944 -0.36274,6.95588 -0.73073,10.3987 -0.31373,3.4075 -0.17228,6.84183 -0.0814,10.25805 0.0964,2.73118 0.0996,5.46378 0.08,8.19615 -0.0164,1.84786 -0.008,0.91944 -0.0241,2.78526 -0.01,0.75055 -10.62395,0.61539 -10.61439,-0.13516 l 0,0 c 0.0408,-1.86595 0.0198,-0.94296 0.0627,-2.76897 0.0508,-2.5495 0.0539,-5.10032 -0.18161,-7.6426 -0.26977,-3.88832 -0.44166,-7.78704 -0.0388,-11.67534 0.3383,-3.07913 1.22174,-6.14093 0.97888,-9.23845 0.0183,-3.61925 0.95135,-6.81871 2.72173,-9.98103 2.39561,-3.50069 5.50221,-6.25685 9.23796,-8.30855 1.11409,-0.5143 3.2339,-1.51696 4.32209,-1.90769 2.51476,-0.90296 5.2536,-1.00753 7.67662,-2.22909 2.69113,-0.58805 5.3642,-1.62886 7.84941,-2.7905 2.89468,-1.92855 5.82869,-3.77085 8.92128,-5.36085 3.4909,-1.7048 -1.58187,0.80745 2.72585,-1.47246 1.53672,-0.81333 3.17286,-1.08831 4.3033,-2.55451 4.16992,-4.36166 7.4135,-9.364 10.13194,-14.74564 3.06791,-5.39127 6.54906,-10.666935 7.97913,-16.776596 0.54268,-4.891483 0.27116,-9.846641 0.17799,-14.757185 -0.11395,-5.44064 -0.248,-9.305861 -3.39578,-14.056555 -3.32034,-4.946652 -7.5021,-9.308506 -10.13987,-14.684798 -0.67358,-2.043071 -0.57607,-2.944295 -2.56851,-3.945659 -4.26562,-2.34175 -8.65778,-4.182124 -13.62565,-4.204488 -6.28571,-0.175358 -12.57167,-0.475595 -18.85855,-0.467125 -5.31602,0.294031 -10.93381,0.52045 -15.78364,2.897736 -4.99571,1.876384 -9.73474,4.328724 -14.72265,6.239899 -5.8154,2.947707 -9.76996,6.753007 -13.38418,12.201603 -4.10496,5.830742 -7.55995,12.132089 -12.15345,17.618508 -0.32945,0.675198 -9.87819,-3.984006 -9.54874,-4.659204 z"
       inkscape:connector-curvature="0" />
    <path
       style="fill:#000000"
       id="path3674"
       d="m 322.21533,237.04241 c -1.45221,0.31458 -2.95023,0.10998 -4.41017,0.31094 -0.26037,0.0358 0.96678,-0.0634 0.7792,0.12071 -1.46867,0.52336 -0.89815,-0.13332 -1.14485,0.24802 0.6322,-0.34794 1.03025,1.84852 1.16248,2.1035 0.24959,0.48129 0.70275,0.8267 1.02712,1.26112 0.8,0.0261 -0.20701,-0.0727 1.06815,0.60837 0.21761,0.11622 1.01039,-0.63461 0.83257,-0.64768 -0.99032,-0.0728 -1.98455,0.0756 -2.97682,0.11335 1.72611,-0.88397 3.17591,-2.46161 4.50679,-3.86376 0.77448,-1.75091 -3.89093,0.67481 0.88244,1.49145 2.66566,0.45605 5.39159,-0.43073 8.08739,-0.64609 0.20313,-2.74798 1.23728,0.56943 0.93859,0.62133 -10.05978,1.74813 -8.50254,3.7102 -10.78503,0.22433 -0.22085,-0.49668 -0.40432,-1.01173 -0.66253,-1.49006 -1.20945,-2.24044 -1.12403,0.31296 0.79818,0.64231 3.43271,0.58817 3.63263,0.2662 5.23069,-0.96288 -0.7659,1.58853 -0.32749,0.79092 -1.33311,2.38293 -0.32471,0.66929 -9.78983,-3.92274 -9.46512,-4.59202 l 0,0 c 0.71647,-1.31924 0.29438,-0.54512 1.26953,-2.32057 0.62668,-0.88249 0.91871,-2.1501 1.88003,-2.64747 6.86055,-3.54948 10.3589,-0.17032 12.41086,5.79342 0.19528,0.6692 1.20301,1.68348 0.58584,2.00758 -10.43929,5.48211 -11.79356,4.26243 -10.11699,-4.11897 2.90479,-0.56808 5.76838,-1.98995 8.71438,-1.70425 1.0512,0.10194 1.21144,1.74508 1.64361,2.70875 1.19164,2.65714 0.0314,5.96368 -1.19808,8.33382 -2.22511,2.94152 -4.96444,5.51479 -8.221,7.28852 -1.72868,0.27596 -3.43835,0.72747 -5.18604,0.82789 -3.23978,0.18616 -6.11442,-2.68556 -8.12717,-4.80459 -2.74886,-4.01196 -4.13814,-8.5036 -2.52624,-13.28897 0.47538,-0.79338 0.83217,-1.67117 1.42616,-2.38014 4.22013,-5.03706 11.06311,-4.57227 16.95934,-3.47263 0.69663,0.2864 -3.35358,10.13813 -4.0502,9.85174 z"
       inkscape:connector-curvature="0" />
    <path
       style="fill:#000000"
       id="path3676"
       d="m 321.22917,232.68949 c 4.5674,1.17306 8.97103,3.2524 12.97206,5.7458 0.36574,0.39347 0.73148,0.78695 1.09722,1.18042 0.49658,0.53551 -7.07672,7.55827 -7.57331,7.02276 l 0,0 c -0.0242,0.0777 -0.0484,0.1554 -0.0726,0.23311 -4.04917,-1.75368 -8.2044,-3.26646 -12.13957,-5.28271 -0.62928,-0.40419 5.08692,-9.30358 5.7162,-8.89938 z"
       inkscape:connector-curvature="0" />
  </g>
</svg>
